<?xml version="1.0" encoding="utf-8"?>
<!-- Generator: Adobe Illustrator 22.0.1, SVG Export Plug-In . SVG Version: 6.00 Build 0)  -->
<svg version="1.1" id="Слой_1" xmlns="http://www.w3.org/2000/svg" xmlns:xlink="http://www.w3.org/1999/xlink" x="0px" y="0px"
	 viewBox="0 0 708 616.052063" style="enable-background:new 0 0 708 616.052063;" xml:space="preserve">
<style type="text/css">
	.st0{fill:#E9846A;}
	.st1{fill:#371748;}
	.st2{fill:none;stroke:#1A1E2B;stroke-miterlimit:10;}
	.st3{fill:#1C1930;}
	.st4{fill:#100F1E;}
	.st5{fill:#FFAC99;}
	.st6{fill:#DAD3DD;}
	.st7{fill:#3C393D;}
	.st8{fill:#504D51;}
	.st9{fill:#FCB3A9;}
	.st10{fill:#232328;}
	.st11{fill:#FEE822;}
	.st12{fill:none;}
	.st13{fill:#2F2E30;}
	.st14{fill:#FDBE06;}
</style>
<g>
	<path class="st0" d="M388.3893127,263.5661621h-42.4450378c-0.9200439,0-1.6730347,0.7528687-1.6730347,1.6730347V426.184967
		c0,0.920166,0.7529907,1.6730347,1.6730347,1.6730347h103.176239c0.9367981,0,1.6730347-0.7528687,1.6730347-1.6730347v-108.83078
		L388.3893127,263.5661621z"/>
	<path class="st1" d="M450.7935486,265.2391968v52.1149902l-62.4042358-53.7880249h60.7312012
		C450.057312,263.5661621,450.7935486,264.3190308,450.7935486,265.2391968z"/>
	<path class="st1" d="M450.7935486,92.481781v160.9458008c0,0.9201355-0.7362366,1.6730194-1.6730347,1.6730194h-70.5520935
		l-34.2971802-29.5457153V92.481781c0-0.9201508,0.7529907-1.6730347,1.6730347-1.6730347h103.176239
		C450.057312,90.8087463,450.7935486,91.5616302,450.7935486,92.481781z"/>
	<path class="st0" d="M378.5684204,255.1006012h-32.6241455c-0.9200439,0-1.6730347-0.7528839-1.6730347-1.6730194v-27.8726959
		L378.5684204,255.1006012z"/>
	<path class="st0" d="M229.5181732,126.6451874v126.7823944c0,0.9201355,0.7527924,1.6730194,1.6730347,1.6730194h103.3933258
		c0.9200439,0,1.6730347-0.7528839,1.6730347-1.6730194v-34.7823334L229.5181732,126.6451874z"/>
	<path class="st1" d="M336.2575684,92.1472549v126.4979935l-106.7393951-92.000061V92.1472549
		c0-0.9202499,0.7527924-1.6730347,1.6730347-1.6730347h103.3933258
		C335.5045776,90.4742203,336.2575684,91.227005,336.2575684,92.1472549z"/>
</g>
<path class="st0" d="M335.2618408,427.855835H230.7335663c-0.5522919,0-1-0.4477234-1-1V264.5628052c0-0.5522766,0.4477081-1,1-1
	h104.5282745c0.5523071,0,1,0.4477234,1,1V426.855835C336.2618408,427.4081116,335.8141479,427.855835,335.2618408,427.855835z"/>
<line class="st2" x1="68.1950684" y1="166.4431305" x2="131.7409973" y2="166.4431305"/>
<polyline class="st2" points="54.6093826,182.6582947 84.8484802,182.6582947 84.8484802,166.4431305 "/>
<line class="st2" x1="144.4501801" y1="182.6582947" x2="84.8484802" y2="182.6582947"/>
<polyline class="st2" points="124.2907867,182.6582947 124.2907867,201.9412079 178.6335144,201.9412079 "/>
<line class="st2" x1="124.2907867" y1="201.9412079" x2="78.274765" y2="201.9412079"/>
<path class="st3" d="M528.9883423,416.7379456H331.3237915c-1.7028809,0-3.083313-1.3804626-3.083313-3.0833435v-11.9578552
	c0-1.7028503,1.3804321-3.083313,3.083313-3.083313h197.6645508c1.7028809,0,3.083313,1.3804626,3.083313,3.083313v11.9578552
	C532.0716553,415.3574829,530.6912231,416.7379456,528.9883423,416.7379456z"/>
<path class="st4" d="M432.6604004,420.4409485v70.8027649l-9.2016907-5.5544739v-65.248291
	c0-0.9703979,0.7862854-1.7566833,1.7567749-1.7566833h5.6881409
	C431.874115,418.6842651,432.6604004,419.4705505,432.6604004,420.4409485z"/>
<path class="st3" d="M467.5933228,577.8231812v3.1620483c0,0.7862549-0.6357422,1.4219971-1.4220276,1.4219971h-76.2234802
	c-0.7695313,0-1.405304-0.6357422-1.405304-1.4219971v-3.1620483c0-2.0076904,1.6228027-3.6472168,3.6473083-3.6472168h31.2688904
	v-88.4867249l9.2016907,5.5544739v82.932251h31.2856445C465.9535828,574.1759644,467.5933228,575.8154907,467.5933228,577.8231812z"
	/>
<path class="st3" d="M456.4946594,166.4030762c-0.0026245,0.0025635-0.0042114,0.0041199-0.0068054,0.0066833h-7.2189941
	c-2.4422302-3.7242126-6.4093933-8.6763-12.5084839-13.0211639c-0.5127563-0.3643494-1.0255127-0.7151947-1.538269-1.0390167
	c-0.3913574-0.2698822-0.7827148-0.5127563-1.1739197-0.7421265c-0.2834778-0.1889343-0.5802917-0.3643494-0.8636169-0.5262604
	c-0.3508301-0.2158661-0.7016907-0.4183044-1.0525208-0.6072235c-0.4317322-0.2428741-0.8634338-0.4722443-1.2818298-0.6881866
	c-0.3913574-0.2158661-0.7827148-0.4047852-1.1604004-0.5802155c-0.3104858-0.161911-0.6208191-0.296814-0.9311523-0.4452209
	c-0.3643494-0.175415-0.7286987-0.3373413-1.092865-0.4858246c-2.8876343-1.2413788-5.5593262-2.0509491-7.8261414-2.6042328
	c0.3373413-0.3103333,0.6880188-0.6206512,1.0523682-0.9040375c2.7525635-1.5247803,5.8426208-2.5097809,9.1216125-2.8471069
	V70.9728851c0-0.9478378,0.7683716-1.716217,1.716217-1.716217h1.4522095c0.9478455,0,1.716217,0.7683792,1.716217,1.716217
	v70.9462585c4.3448486,0.4452209,8.3523865,2.0375214,11.6987305,4.4663391
	C452.7450562,150.8617096,456.6863098,158.1811523,456.4946594,166.4030762z"/>
<path class="st3" d="M443.749939,113.444931c-0.4517517,0.3513794-0.8865662,0.7361374-1.3048096,1.120903
	c-0.1507263-0.0333862-0.3014526-0.0668793-0.4350281-0.1003723
	C442.5786743,114.0974426,443.1643982,113.7628174,443.749939,113.444931z"/>
<path class="st4" d="M449.2688599,166.4097595H408.437561c-0.0134888-0.1888428-0.0134888-0.3912811-0.0134888-0.5802002
	c0-8.500885,4.412384-15.9762421,11.0647583-20.2402344c0.1077271,0.0270233,0.2292786,0.0540314,0.3508301,0.0809631
	c2.2668152,0.5532837,4.9385071,1.362854,7.8261414,2.6042328c0.3641663,0.1484833,0.7285156,0.3104095,1.092865,0.4858246
	c0.3103333,0.148407,0.6206665,0.2833099,0.9311523,0.4452209c0.3912048,0.1889343,0.769043,0.3778687,1.1604004,0.5802155
	c0.418396,0.2159424,0.8500977,0.4453125,1.2818298,0.6881866c0.3508301,0.1889191,0.7016907,0.3913574,1.0525208,0.6072235
	c0.2833252,0.161911,0.5801392,0.337326,0.8636169,0.5262604c0.3912048,0.2293701,0.7825623,0.4857483,1.1739197,0.7421265
	c0.5127563,0.323822,1.0255127,0.6746674,1.538269,1.0390167
	C442.8594666,157.7334595,446.8266296,162.6855469,449.2688599,166.4097595z"/>
<path class="st3" d="M173.1090546,403.4781799c-1.2993469,10.2253113-2.3896484,20.4794006-3.8980713,30.6759033
	c-0.1658325,1.1210022-0.267334,2.2416077-0.2458954,3.5319824l-0.1475525,11.6507874
	c-0.0653229,5.1590881,1.5876465,10.2738037,4.999176,14.1444397c0.3212585,0.364502,0.6629333,0.7261658,1.0263367,1.0830688
	c4.9066162,4.8185425,10.6214294,5.6657715,12.338623,5.8556213h100.591095l3.3460693-17.1485901l-78.0748444-1.6730347
	l-18.7519379-79.2599487l-0.6104736-37.200531c0.0801544-7.5782166,0.2112122-19.9674377,0.2913818-27.5456543
	c0.0006104-0.0254211,0.0011597-0.0509033,0.0017242-0.0764465c0.0370636-1.6846008-0.0162201-3.2570496-0.124649-4.6993103
	c-0.1229095-1.6347656-0.9081268-3.1466675-2.1355438-4.2333984l-0.0365448-0.0323486
	c-1.698761-1.4942322-3.5831299-1.7772522-4.2871552-1.8473511c-1.9541473-0.1813965-7.6077271-0.447876-13.3540344,3.0352783
	c-1.9516907,1.1830444-3.4949799,2.5445862-4.6972809,3.8547363c-2.1318665,2.3230896-3.2444,5.3869934-3.2568665,8.539978
	c-0.005661,1.4321289,0.0233612,3.0670166,0.1164551,4.8555298c0.4027405,7.7376099,1.7714233,13.4085083,2.0352783,14.7076111
	c1.2249756,6.0310364,4.3234711,21.2209473,5.2609253,60.847229
	C173.5862427,396.3887329,173.5691071,399.857666,173.1090546,403.4781799z"/>
<path class="st3" d="M228.8198853,568.3969727h-1.6637878c-1.9211884,0-3.5194244-1.4772339-3.6703949-3.3924561
	l-3.0792999-39.0631104c-0.1687622-2.1408081,1.5229492-3.9711304,3.6703949-3.9711304h7.8223877
	c2.1474457,0,3.8391418,1.8303223,3.6703949,3.9711304l-3.0792999,39.0631104
	C232.3392944,566.9197388,230.7410583,568.3969727,228.8198853,568.3969727z"/>
<circle class="st3" cx="227.9879913" cy="578.2260132" r="7.6332245"/>
<circle class="st3" cx="171.0003052" cy="578.2260132" r="7.6332245"/>
<circle class="st3" cx="284.1391602" cy="578.2260132" r="7.6332245"/>
<path class="st3" d="M220.4524841,548.1801758l0.7422791,8.2002563c0.04216,0.4658813-0.2843628,0.8845825-0.7464752,0.9570923
	l-45.4825287,7.1424561c-0.4318695,0.0678101-0.7500916,0.4399414-0.7500916,0.8770752v1.62854
	c0,0.4625244-0.3551483,0.8475952-0.8161926,0.8849487l-5.8384552,0.4725952
	c-0.4225311,0.0341797-0.8077698-0.229187-0.9266205-0.6361084c-0.2021942-0.6923218-0.3637238-1.8045654,0.1223145-3.0046997
	c0.6066589-1.4980469,1.8313599-2.1681519,2.161026-2.3352661c16.7993164-4.9859619,33.5986176-9.9719849,50.397934-14.9580078
	C219.8530579,547.2495728,220.4019623,547.6218872,220.4524841,548.1801758z"/>
<path class="st3" d="M235.951828,548.1801758l-0.7422791,8.2002563c-0.04216,0.4658813,0.2843628,0.8845825,0.7464752,0.9570923
	l45.4825439,7.1424561c0.4318542,0.0678101,0.7500916,0.4399414,0.7500916,0.8770752v1.62854
	c0,0.4625244,0.3551331,0.8475952,0.8161621,0.8849487l5.8384705,0.4725952
	c0.4225159,0.0341797,0.8077698-0.229187,0.9266052-0.6361084c0.2022095-0.6923218,0.363739-1.8045654-0.1222839-3.0046997
	c-0.6066589-1.4980469-1.8313599-2.1681519-2.1610413-2.3352661c-16.7993164-4.9859619-33.5986176-9.9719849-50.397934-14.9580078
	C236.551239,547.2495728,236.0023499,547.6218872,235.951828,548.1801758z"/>
<path class="st5" d="M265.7408752,535.7479858l-4.3526306,6.9776611c-0.3141785,0.5036621-0.6963806,0.9616089-1.1357117,1.3608398
	l-2.4012451,2.1821289c-2.0104065,1.8268433-1.6125488,4.9111938,0.7501221,6.4013672
	c1.29953,0.8195801,4.0404968,2.2240601,5.436554,2.8655396c0.3525085,0.1619873,6.4760742,2.1786499,6.8476868,2.2900391
	c2.6511841,0.7947388,13.9073486,4.1585083,13.9073486,4.1585083c1.1118164,0.4039917,2.3051147,0.3913574,2.9131165-0.2164917
	c0.853302-0.8531494,0.7117004-3.0374756-1.1167603-4.6428223c-0.0734863-0.0645142-0.1640015-0.1157837-0.2564087-0.1477051
	l-6.3917542-2.2059326c-1.9416809-0.670166-3.3970337-2.2977295-3.8499146-4.3012695
	c-0.5229187-2.3131714-1.0718689-4.62677-0.6941833-6.9243774c0.3085022-1.8771362,1.5173035-3.4671631,2.4712524-5.1384888
	c0.2365723-0.4144897-0.0036011-0.9384766-0.4734192-1.0220337l-10.9521179-1.9491577
	C266.1670227,535.3867188,265.8891296,535.5103149,265.7408752,535.7479858z"/>
<path class="st5" d="M244.3881989,288.8955994l15.3906097-11.1037292c3.6158447-3.0694885,6.0148926-7.3306274,6.7644043-12.0140381
	l2.655365-16.5969238c0.4167786-2.60495,1.7264404-4.9839172,3.7045898-6.7293091l4.6315918-4.0865784
	c2.5648804-2.2630768,6.1594849-2.947937,9.3768311-1.7864838l13.7268372,4.9553223
	c8.1535645,2.9434357,12.4744263,11.8500061,9.7394104,20.0757904l-4.6265869,14.1581421
	c0.2971497,1.6437683,2.1243896,4.1205444,1.9981689,7.3755188c-0.0220642,0.5662231-0.5706177,2.1152954-1.0979309,1.9082947
	c-0.6772156-0.2657471-2.7001038-1.8029175-3.3225708-2.2432251c-0.8843079,1.0617676-2.0913086,2.7473755-2.9286194,5.0418701
	c-1.92099,5.2643738-0.159729,8.975708-2.5306091,11.3762817c-0.3388977,0.3431396-0.8041992,0.7019958-1.4620972,0.9920044
	c-1.7319031,0.7633972-3.7577515,0.4105225-5.284729-0.7077942l-10.2528687-7.5091553
	c-2.1911621-1.6047363-5.2994995-0.8475952-6.5071106,1.585022l-4.9136963,17.2155762L244.3881989,288.8955994z"/>
<path class="st5" d="M403.6596375,373.9423218c1.5321045,1.2309265,0.1893005,4.3984985,1.4359131,4.9769287
	c0.4305115,0.1997681,0.9517212-0.0106812,1.2933655-0.1936646l0.5316162-5.7260437
	c0.3216553-3.4654846-2.2262878-6.5358887-5.6916199-6.8586121c-15.1112061-2.3075256-31.1902466-4.2559509-48.1629944-5.6531982
	c-11.5462341-0.95047-22.7091064-1.5802612-33.4537354-1.9476013c-0.0498352-0.0046387-0.1219177-0.0168457-0.2023926-0.0512085
	c-0.0639038-0.0273132-0.1237488-0.0645447-0.177063-0.1106567c-3.5923462-4.7070313-8.5475464-10.3105774-15.1726685-15.8058777
	c-5.2323303-4.3401489-10.2949219-7.6078796-14.6843872-10.0543823c-0.0394287-0.0341492-0.1995239-0.164856-0.4423523-0.1647644
	c-0.1576538,0.000061-0.3151245,0.0550842-0.4419556,0.1650696l-18.211792,15.7965088
	c-0.3721008,0.322937-0.2877502,0.921051,0.1613464,1.1238098c7.9493408,3.5874939,63.2031555,28.1747742,81.3007813,26.7528381
	c0.0001831,0,37.9424438-9.0113831,40.3024902-4.7225037c0.0085754,0.0157166,0.598175,1.0886841,1.7338867,2.2103577
	c0.6322937,0.6245422,2.2573242,2.2294922,3.2280273,1.8009338c0.9079895-0.4008484,0.7521667-2.2575989,1.6148376-2.4916382
	c0.5413818-0.1141663,1.4087524-0.2272949,2.449707-0.0572815
	C402.2849731,373.1296997,403.1711121,373.6212158,403.6596375,373.9423218z"/>
<path class="st6" d="M323.2580566,451.8326111c-6.6251526,15.8268127-14.0702515,32.322998-22.4354248,49.3377075
	c-6.5079041,13.2002869-13.1165161,25.7814026-19.708374,37.6933899c-0.568573,1.0373535-1.7565613,1.5894165-2.9278259,1.3551636
	c-4.3496399-0.8197632-8.6829224-1.6395264-13.0327759-2.4593506c-1.723053-0.3345947-2.7102966-2.1748657-2.0245056-3.7977905
	c1.7065125-3.9984741,3.7310486-9.3187866,5.5880737-15.6763306c5.6213684-19.2732544,1.8737793-21.7661438,7.2443542-31.1351013
	c3.3628235-5.8556213,11.4265442-16.3789673,12.7650452-22.887085c0.2177124-0.9871216,0.7862854-3.6806946-0.6355286-5.8890991
	c-1.087738-1.6730347-2.9110718-2.8608093-5.1195984-2.9946899l-69.129837-1.4053955
	c-11.3432159-0.2341614-21.1134644-8.0806885-23.7569885-19.1227417l-1.6188965-7.1231689l-0.452713-2.302887
	c-0.1123199-0.463623,0.0863953-2.8061829,0.274704-3.2444763c1.4162292-3.2964478,7.1844177-8.1746826,8.9375-11.9075012
	c0.3431396-0.7306519,1.0550385-1.2068176,1.8600159-1.2666931l13.5169067-1.0054016
	c0.1677704-0.0124817,0.3364105-0.0061951,0.5027924,0.0187988l32.9593201,4.9480286l0.0669861,0.0167236l65.9467468,17.9293823
	c0.1363831,0.0370789,0.2672119,0.0819397,0.3960266,0.1401672
	C319.4245605,434.1969299,326.557373,445.0353699,323.2580566,451.8326111z"/>
<path class="st7" d="M291.286438,335.0715637l-3.1786194,9.3355408c-0.4852295,1.4387817-2.1917725,2.0411682-3.4632874,1.2380371
	l-1.4890137-0.9201355c-0.1170349-0.0836487-0.2510071-0.1505127-0.3847656-0.2007751
	c-1.0540161-0.4182434-2.2752991-0.0334778-2.8777771,0.9703979l-15.2243652,25.4301147
	c-0.0502319,0.1003723-0.1004639,0.2007751-0.1507263,0.3011475l-16.1613312,38.9313965
	c-0.3179932,0.7696228-0.7864838,1.4555359-1.3552551,2.0244141c-0.5019989,0.5186462-1.254776,0.736145-1.9908142,0.6357727
	l-10.6574249-1.6061707c-12.4807587-1.8737793-34.4977264,13.4177551-36.6727448,14.9569397
	c-0.1172333,0.0836182-3.3963013,1.8737793-3.5302734,1.9407654l-5.1193848,2.1246643
	c-1.3215485,0.2845154-1.4220276-5.6548462-1.1879883-6.9932556c1.6230011-9.5697021,4.2663116-31.1016235,5.6383209-42.1269531
	c4.6678162-37.576355,4.1323395-50.4586182,13.7187805-65.0976563c5.6381226-8.6161804,16.4125519-20.3273926,38.4797668-28.5085449
	c0.8197632-0.3011475,1.7400208-0.1337891,2.3923187,0.4517517l21.5823822,19.0558472
	c0.50177,0.4516602,0.7862549,1.0874329,0.7862549,1.7566833v3.5802917c0,0.6357727,0.2675476,1.2547913,0.7360535,1.7064514
	l19.5076294,18.5539551C291.3534241,333.2480164,291.5874634,334.2016602,291.286438,335.0715637z"/>
<line class="st2" x1="563.5019531" y1="267.7182617" x2="615.2235718" y2="267.7182617"/>
<polyline class="st2" points="552.4442139,280.9162292 577.0565796,280.9162292 577.0565796,267.7182617 "/>
<line class="st2" x1="625.5679321" y1="280.9162292" x2="577.0565796" y2="280.9162292"/>
<polyline class="st2" points="609.159668,280.9162292 609.159668,296.6110535 653.390625,296.6110535 "/>
<line class="st2" x1="609.159668" y1="296.6110535" x2="571.7060547" y2="296.6110535"/>
<line class="st2" x1="338.979187" y1="506.7764282" x2="380.5102844" y2="506.7764282"/>
<polyline class="st2" points="330.1001282,517.3740234 349.8632202,517.3740234 349.8632202,506.7764282 "/>
<line class="st2" x1="388.8164978" y1="517.3740234" x2="349.8632202" y2="517.3740234"/>
<polyline class="st2" points="375.6411438,517.3740234 375.6411438,529.9765625 411.1573792,529.9765625 "/>
<line class="st2" x1="375.6411438" y1="529.9765625" x2="345.5668945" y2="529.9765625"/>
<path class="st8" d="M442.8034668,353.5586548l-18.9023132,42.9968567c-0.0915833,1.1544189-0.962677,2.0579224-2.0475464,2.0579224
	h-59.2436218c-1.1613464,0-2.0934448-1.0206299-2.0934448-2.2920532c0-1.2715149,0.9320984-2.2920532,2.0934448-2.2920532h7.4876404
	c-0.0611877-0.1338806-0.0915833-0.2509766-0.0915833-0.3848572c0-0.0836487,0.0152893-0.1505127,0.0456848-0.2342529
	c0.6265564-0.0668945,1.2988281-0.1505127,2.0016785-0.2843933c0.1529541-0.0167542,0.244751-0.0333862,0.2751465-0.0501404
	l7.6252747-1.2213745c2.4752808,0.2174988,4.8438721,0.4016113,7.3193665,0.602356l0.1068726,0.0334167
	c1.6810303,0.2677307,3.3312988,0.5353699,5.012146,0.8031006c0.1529541-0.0334778,0.2749634-0.1171265,0.3514404-0.2509766
	c0.1529541,0.2007446,0.229248,0.4014893,0.229248,0.6022644c0,0.1338806-0.030426,0.2509766-0.0915833,0.3848572h27.9942932
	l18.5661621-42.2608337c0.3973389-0.9536438,1.4515991-1.3551331,2.3227234-0.8867493l0.2290649,0.1171265
	C442.8646545,351.4506226,443.216095,352.605011,442.8034668,353.5586548z"/>
<path class="st9" d="M395.8007507,393.0254517v0.0167542c-0.0837402,0.1338501-0.2173157,0.2174988-0.3847656,0.2509766
	c-1.8403015-0.2677307-3.6470947-0.5353699-5.4876099-0.8031006l-0.1170044-0.0334167
	c-2.7103271-0.2007446-5.3035889-0.3848572-8.0137024-0.602356l-8.3486023,1.2213745
	c-0.0332947,0.0167542-0.1337891,0.0333862-0.301239,0.0501404c-0.7695313,0.1338806-1.5055847,0.2174988-2.1915894,0.2843933
	c-3.0448303,0.2174988-5.3871155-0.2341614-6.3741455-0.4182739c-5.9895935-1.0205078-8.2981567-0.3847656-19.223114-2.3589172
	c-7.528656-1.3551636-13.6520081-2.9613037-17.5836182-3.9985657c-0.9202271-0.2509155-1.5894775-0.3680115-2.6602478-0.7193909
	c-18.1523743-5.9559937-28.9935913-8.816925-35.8864746-10.3226013l-21.7839966-6.2980652
	c-0.0669861-0.0167236-0.853241-0.3189392-1.0877075-0.8375854c-0.1502991-0.3178711,0.0463257-0.8164673,0.1968384-1.1678467
	l10.3278503-24.9229126c0.3179932-0.6692505,1.1712646-0.9035034,1.7900696-0.4852295
	c6.7591248,4.1491699,13.769043,8.6997986,20.929657,13.7356262c5.3370972,3.730835,10.4062195,7.4784241,15.1912842,11.1758423
	c0.0334778,0.0167542,0.0837097,0.0502625,0.1170044,0.0668945c0.0335083,0.0167542,0.0835266,0.0334778,0.1170349,0.0502319
	c8.4991455,2.1247864,18.1693115,5.203125,28.4917908,9.7538147l24.041687,9.3188171
	c1.8903198,0.2341309,3.7810669,0.4516296,5.1694031,0.6356506c1.4724731,0.1673584,2.9613037,0.1506042,4.4337769-0.0501404
	l9.4692383-1.3216553c0.3010254,0,1.4555359,0,1.6730347,0.2007446l7.4114075,6.8092651
	C395.9514771,392.4733276,395.9682007,392.7911987,395.8007507,393.0254517z"/>
<path class="st10" d="M293.7904663,250.8114471l13.7767029,5.3296356c2.796051,1.0816956,5.9665833,0.032074,7.5648804-2.5043488
	l5.1697083-8.2041626c0.831543-1.3195953,0.114624-3.0653229-1.4042969-3.4196777l-30.8829346-7.2045746
	c-2.8230286-0.6585846-5.7802734-0.4335632-8.4711609,0.6445923l-6.8833313,2.7579193
	c-2.9996948,1.201828-5.247406,3.7606964-6.0524902,6.8902283l-6.7578735,30.1842499
	c-0.0927124,0.3607178,0.0048828,1.4161987,0.3745422,1.4624023c0,0,0.8778992-0.1582336,1.7766418-0.2946472
	c1.2356262-0.1875305,2.2941284-0.9847107,2.8243713-2.1164246l2.580658-5.5080261
	c0.0028687-0.006073,0.0050964-0.0123901,0.0067444-0.0188904l1.3491821-5.3638
	c0.3786011-1.5052185,2.1601868-2.1490173,3.4135437-1.2335205l0,0c2.0838013,1.5220642,3.8830566,4.2388916,3.4954224,6.7900696
	l-3.8274231,6.9307556c-0.2082214,1.3704529-0.2385864,4.6073608-0.067627,5.9829712l3.1890259,10.8184204
	c0.1131592,0.2501221,0.7529907,0.3330994,1.0248108,0.2946472l3.3766785-0.1488342
	c0.4813538,0.1260986,0.9303894,0.2437744,1.4117432,0.369873l10.7018433,6.6581116
	c0.534668,0.3574829,1.4461365,0.8682556,2.6823425,1.1153259c0.6759644,0.1351013,1.284668,0.1584778,1.7854919,0.1361389
	c0.3598022-0.0160522,0.7167969-0.1291504,0.9959412-0.35672c3.2067566-2.6141357,2.1190491-6.4585571,1.7201233-7.5540771
	c-0.077301-0.2123108-0.1879578-0.3894958-0.3460388-0.5509644c-0.8885498-0.9076538-4.1128845-3.9829407-4.6616516-4.510376
	c-0.0581665-0.0559082-0.1099854-0.0971985-0.1766968-0.1426086c-2.0559998-1.3995056-4.9490356-3.73526-7.5438843-7.3401489
	c-3.3981323-4.7209167-4.5302429-13.6532898-4.5310669-13.7327881l-0.243988-6.5178528
	c-0.0163269-1.793335,1.1734924-4.1178894,2.6402588-5.1498108l4.5505371-3.8262939
	C289.9389954,250.3611755,291.9798279,250.1109924,293.7904663,250.8114471z"/>
<path class="st8" d="M468.3832703,342.3283997c10.20401-1.516449,18.0091858,2.0014038,19.3270569,6.831543
	c0.2409973,0.8833618,0.6112671,3.0793152-1.2896729,6.3784485c-0.4372559,0.20755-4.3204346,2.1307983-5.1236877,6.4481201
	c-0.5076904,2.7294006,0.4960938,4.907135,0.8863525,5.6580811c0.3233032,0.5973816,0.6463928,1.1947937,0.969696,1.7921448
	c0.3694458,0.3019714,0.5123901,0.7840881,0.3659668,1.1763611c-0.1872864,0.5018311-0.8261108,0.7967834-1.4261169,0.5664673
	c-2.2093506-0.6155396-4.4186707-1.2310181-6.6280212-1.8465576c-0.9061584-0.2041321-1.6293335-0.7721558-2.0567627-1.5108337
	c-0.5066833-0.8756104-0.413147-1.8027039-0.2826538-2.5348816c0.5945129-3.3372192,2.3106384-4.5560913,2.6034851-6.1501465
	c0.9084167-4.9464111-12.5922546-9.6805115-11.8157959-13.8025208
	C464.0891724,344.4002686,465.042511,343.2651672,468.3832703,342.3283997z"/>
<path class="st11" d="M450.6585693,166.4097595c-2.7390442,7.151535-9.6747131,12.2386017-17.797821,12.2386017
	c-1.2547913,0-2.4962463-0.1213837-3.6836853-0.3643494c-1.6191711-1.511261-3.3868713-3.4947662-4.9386597-6.0180359
	c-1.2953186-2.1049805-2.1589355-4.1154938-2.7390747-5.8562164H450.6585693z"/>
<rect x="328.2404785" y="407.6756897" class="st4" width="203.8311768" height="3.9037476"/>
<g>
	<path class="st3" d="M232.9287872,477.2551575c0-1.6382141-1.3283081-2.9663086-2.9666138-2.9663086h-3.9485474
		c-1.6383057,0-2.9662018,1.3280945-2.9662018,2.9663086v14.3987732l9.8813629,8.0421753V477.2551575z"/>
	<path class="st4" d="M223.0474243,491.6539307v25.1542358c0,1.6381836,1.3278961,2.9663086,2.9662018,2.9663086h3.9485474
		c1.6383057,0,2.9666138-1.328125,2.9666138-2.9663086V499.696106L223.0474243,491.6539307z"/>
</g>
<g>
	<path class="st12" d="M469.3639526,381.1970825v9.0845642c0,1.0038757,0.8197632,1.8236694,1.823761,1.8236694h2.1917725
		v-12.731781h-2.1917725C470.1837158,379.3735352,469.3639526,380.1933289,469.3639526,381.1970825z"/>
	<path class="st7" d="M487.4662781,380.6784668l-2.325531-8.2815552h-9.251709c-1.3887634,0-2.509552,1.1210327-2.509552,2.509552
		v3.2792053h-3.0282898c-1.1877747,0-2.1415405,0.9536438-2.1415405,2.14151v10.7575989
		c0,1.1877747,0.9537659,2.1246948,2.1415405,2.1246948h3.0282898v2.8944092c0,1.3885498,1.1207886,2.509552,2.509552,2.509552
		h8.2814331l3.1118164-9.4694214C488.1855774,386.4002991,488.2525635,383.4557495,487.4662781,380.6784668z
		 M473.3794861,392.1053162h-2.1917725c-1.0039978,0-1.823761-0.8197937-1.823761-1.8236694v-9.0845642
		c0-1.0037537,0.8197632-1.8235474,1.823761-1.8235474h2.1917725V392.1053162z"/>
	<path class="st13" d="M490.276886,372.3969116h-5.1361389l2.325531,8.2815552
		c0.7862854,2.7772827,0.7192993,5.7218323-0.1839905,8.4655457l-3.1118164,9.4694214h6.1064148
		c1.3887329,0,2.5095215-1.1210022,2.5095215-2.509552v-21.1974182
		C492.7864075,373.5179443,491.6656189,372.3969116,490.276886,372.3969116z"/>
</g>
<path class="st13" d="M291.286438,335.0715637l-3.1786194,9.3355408c-0.4852295,1.4387817-2.1917725,2.0411682-3.4632874,1.2380371
	l-1.4890137-0.9201355c-0.1170349-0.0836487-0.2510071-0.1505127-0.3847656-0.2007751l-3.3795776-2.2084045l-8.9506836-8.6662903
	v-21.297699c0,0.6357727,0.2675476,1.2547913,0.7360535,1.7064514l19.5076294,18.5539551
	C291.3534241,333.2480164,291.5874634,334.2016602,291.286438,335.0715637z"/>
<path class="st14" d="M429.177063,178.2840118c-5.4761963-1.2683105-9.9617615-5.8291016-11.9199524-11.8742523h5.4420166
	c0.4894714,1.7407227,1.2181091,3.751236,2.3110352,5.8562164
	C426.3194275,174.7892456,427.8109131,176.7727509,429.177063,178.2840118z"/>
</svg>
