<?xml version="1.0" encoding="utf-8"?>
<!-- Generator: Adobe Illustrator 22.0.1, SVG Export Plug-In . SVG Version: 6.00 Build 0)  -->
<svg version="1.1" id="Слой_1" xmlns="http://www.w3.org/2000/svg" xmlns:xlink="http://www.w3.org/1999/xlink" x="0px" y="0px"
	 viewBox="0 0 905.0499268 475.2426758" style="enable-background:new 0 0 905.0499268 475.2426758;" xml:space="preserve">
<style type="text/css">
	.st0{fill:#D3E1EA;}
	.st1{fill:#FDC5B6;}
	.st2{fill:#453C57;}
	.st3{fill:#F8D6D5;}
	.st4{fill:#EDF5F8;}
	.st5{fill:#FFFFFF;}
	.st6{fill:#AFC4D5;}
	.st7{fill:#C9D9E6;}
	.st8{fill:#272264;}
	.st9{fill:#FDFFFF;}
	.st10{fill:#FC4944;}
	.st11{fill:#FF8302;}
	.st12{fill:#F9B700;}
	.st13{fill:#FFCFC6;}
	.st14{fill:#01D26C;}
	.st15{fill:#FF4647;}
	.st16{fill:#FFB200;}
	.st17{fill:#80284E;}
	.st18{fill:#1A005B;}
	.st19{fill:#F5D4C1;}
	.st20{fill:#726B94;}
	.st21{fill:#835E92;}
	.st22{fill:#7C618A;}
	.st23{fill:#473D56;}
	.st24{fill:#FF7C24;}
	.st25{fill:#FF2459;}
	.st26{fill:#807498;}
	.st27{fill:#EFEFEF;}
	.st28{fill:#D8D84E;}
	.st29{fill:#40304D;}
	.st30{fill:#F42535;}
	.st31{fill:#6A597C;}
	.st32{fill:none;stroke:#40304D;stroke-width:3;stroke-miterlimit:10;}
	.st33{fill:none;}
	.st34{font-family:'MyriadPro-Regular';}
	.st35{font-size:15px;}
	.st36{fill:#FDD2CB;}
	.st37{fill:#02D06B;}
	.st38{fill:#7E2C52;}
	.st39{fill:#251D66;}
	.st40{fill:#5F1435;}
	.st41{fill:#FDB709;}
	.st42{fill:#F7D1C4;}
	.st43{fill:#FC4446;}
	.st44{fill:#E5557B;}
	.st45{fill:#812B52;}
	.st46{fill:#281F60;}
	.st47{fill:#37B746;}
	.st48{fill:#2E82CE;}
	.st49{fill:#4E578D;}
	.st50{fill:#CDCFD3;}
	.st51{fill:#643144;}
	.st52{fill:#3652C6;}
	.st53{fill:#2A1831;}
	.st54{fill:#D8D8D8;}
	.st55{fill:#774D26;}
	.st56{fill:#87642A;}
</style>
<path class="st0" d="M442.25,176.3220367h-86.5c-32.2078552,7.467041-54.5970154,9.4517822-67.75,10
	c-0.8961182,0.0373535-9.40625,0.34375-10-2c-1.3255005-5.2321167,39.3861694-13.4632568,42.6542969-33.8148804
	c0.4202271-2.6168823,0.15979-5.0506287-0.3475037-7.1208954C319.5079041,140.1260223,319,136.8013458,319,133.4446564v-7.1522827
	c0-20.2964706,16.4535217-36.75,36.75-36.75h86.5c20.2964783,0,36.75,16.4535294,36.75,36.75v13.2796631
	C479,159.8684998,462.5464783,176.3220367,442.25,176.3220367z"/>
<path class="st0" d="M57.6820641,73.0543747l88.416153,17.5855408
	c55.6330719,11.0651398,102.2177429,48.879509,124.4851227,101.0488358l4.26474,9.9916687
	c18.2870789,42.8439636,60.375824,70.6416016,106.9593201,70.6416016h97.4100952
	c32.5975342,0,62.6530457,17.6069641,78.5934753,46.0411682v0.000061
	c7.1066284,12.6766357,19.3654175,21.6446533,33.5987549,24.5793457l29.071228,5.9940796
	C646.9845581,354.4013367,666,377.7374573,666,404.798584v15.7734375c0,9.8030701-7.9469604,17.75-17.75,17.75H54V76.0762253
	C54,74.1332779,55.7764511,72.6753616,57.6820641,73.0543747z"/>
<g>
	<path class="st5" d="M108,396.4920044v6.6599731c0,3.4100342-2.7600098,6.1700439-6.1699829,6.1700439h-4.6600342
		c-3.4099731,0-6.1699829-2.7600098-6.1699829-6.1700439v-6.6599731c0-3.4099731,2.7600098-6.1699829,6.1699829-6.1699829h4.6600342
		C105.2399902,390.3220215,108,393.0820313,108,396.4920044z"/>
	<path class="st27" d="M97.1699829,409.3220215h-2c-3.4099731,0-6.1699829-2.7600098-6.1699829-6.1700439v-6.6599731
		c0-3.4099731,2.7600098-6.1699829,6.1699829-6.1699829h2c-3.4099731,0-6.1699829,2.7600098-6.1699829,6.1699829v6.6599731
		C91,406.5620117,93.7600098,409.3220215,97.1699829,409.3220215z"/>
</g>
<path class="st32" d="M99,399.3220215h41.3333282C155.613205,399.3220215,168,386.9352417,168,371.655365v-92.8333435
	c0-12.9786682,10.5213013-23.4999847,23.5-23.4999847H223"/>
<path class="st1" d="M300,310.3220215c-0.4699707,0.4699707-0.8699951,0.8900146-1.2199707,1.2700195
	c-3.3500977,3.5899658-2.4000244,3.5699463-7.1101074,2.1398926c-0.1699219-0.0499268-0.3498535-0.1098633-0.5299072-0.1599121
	c-3.0799561-5.3500977-6.2900391-11.7800293-9.1400146-19.25c-2.1899414-5.7299805-3.8000488-11.1300049-5-16
	c-5.3300781-13.6700439-10.6699219-27.3300629-16-40.9999847l12.2299805-18.5900879L278,221.3220367
	c1.75,7.4199219,3.4199219,15.0899658,5,23c1.9199219,9.6099854,3.5700684,18.9499359,5,27.9999847
	c2.4099121,4.7800293,4.8800049,10.4599609,7,17C297.5500488,297.2120361,299.1999512,304.1519775,300,310.3220215z"/>
<polygon class="st5" points="213.9202728,322.9454041 197.5529175,430.5022888 208.0747986,430.5022888 238.0816193,340.8715515 
	238.0816193,430.5022888 250.9416809,430.5022888 271.9854126,319.4381104 "/>
<path class="st29" d="M273.2266235,303.5189209l-1.1106567,14.2512512c-0.0253296,0.3176575-0.1266479,0.6138-0.286438,0.8670959
	c0.2767029-3.1546021,0.5650635-7.223053,1.130127-12.6437683
	C273.051239,305.1088562,273.1408691,304.2866211,273.2266235,303.5189209z"/>
<path class="st29" d="M273.9709167,293.947876l-0.0311584,0.3955688c-0.0019531-0.492981-0.0136414-0.9917908-0.0370178-1.5081482
	C273.9767761,293.1918945,274.0001831,293.5640259,273.9709167,293.947876z"/>
<path class="st29" d="M238.0816193,430.4316711v6.8903503h21.1540985c1.9090271,0,2.7561035-2.4009094,1.2697144-3.5988464
	l-2.8476563-2.295105c-0.8000488-0.6447754-1.7966614-0.9963989-2.8242035-0.9963989H238.0816193z"/>
<path class="st29" d="M197.5529175,430.4316711v6.8903503h21.0283356c1.9509125,0,2.8165588-2.4535522,1.2975769-3.6777954
	l-2.3437805-1.8889465c-1.0627594-0.8565369-2.3866272-1.3236084-3.7515869-1.3236084H197.5529175z"/>
<path class="st5" d="M276.8599854,220.2619781l-2.7399902,71.8100433l-61.8399658,2.0600586
	c-0.6201172-14.880127-1.25-29.7600098-1.8701172-44.6401215c-0.4699707,4.0500488-1.1599121,8.4200287-2.1398926,13.0500336
	c-0.7600098,3.6000977-1.6199951,6.9899902-2.5300293,10.1300049c1.2700195,6.2900391,2.4100342,13.0599365,3.3100586,20.2700195
	c1.1398926,9.1900635,1.7299805,17.7999268,1.9499512,25.7199707c-0.1500244,0.0500488-0.3000488,0.0899658-0.4499512,0.1099854
	c-1.7399902,0.3800049-3.5100098-0.3499756-5.2199707-0.4399414c-0.1101074-0.0100098-0.2200928-0.0100098-0.3300781-0.0100098
	c-3.3200684-7.6799316-6.4599609-16-9.4000244-25.5800781c-2.2698975-7.4099121-4.0499268-14.4599609-5.4499512-21.039917
	c-0.2200928-6.3000488-0.2000732-13.1500244,0.1900635-20.4600677c0.4399414-8.1799316,1.289917-15.7399902,2.3398438-22.5998535
	c1.0500488-3.1501465,3.8901367-10,7.0200195-11.1101074l24.9400635-8.3800049h25.9100342L276.8599854,220.2619781z"/>
<path class="st29" d="M273.9397583,294.3434448c0.0155945,2.7863464-0.2903137,5.3310852-0.7131348,9.1754761
	L273.9397583,294.3434448z"/>
<path class="st29" d="M273.9397583,294.3434448l-0.7131348,9.1754761c-0.0857544,0.7677002-0.1753845,1.5899353-0.2669678,2.4745789
	c-0.5650635,5.4207153-0.8534241,9.4891663-1.130127,12.6437683c-0.557251,6.3638-1.0716858,9.0079041-3.7410889,11.5175476
	c-0.9742432,0.915802-3.3222046,3.1234436-6.4300537,3.1176147c-4.8439331-0.0097656-9.489151-5.399292-12.5599823-12.4508972
	l-33.0893402,1.9972229c-1.1535034,0.0701294-2.1414032-0.8086548-2.2076416-1.9621277l-1.4594116-25.6305237
	c-0.0974274-1.6874084,1.2061157-3.1273499,2.8935089-3.201355l32.2202911-1.4146118
	c2.2797546-7.2425537,6.3891296-13.2380981,11.8643799-14.4286194c3.4624939-0.7521057,7.7686462,0.3507385,10.5218811,2.92276
	c0.6917419,0.6469116,3.0708313,3.0532532,3.8970032,11.4960938c0.0759888,0.7872009,0.1305237,1.5217896,0.1617432,2.2271423
	c0.0019226,0.0019531,0.0019226,0.0058289,0.0019226,0.007782
	C273.9261169,293.3516541,273.9378052,293.8504639,273.9397583,294.3434448z"/>
<path class="st29" d="M190.3607025,270.3714294l15.3626404,0.9036865c0.3453217,0.0203247,0.6257324,0.2865601,0.6639404,0.6303406
	l0.1813202,1.6318359c0.0744324,0.6699524-0.4708862,1.2462158-1.1439209,1.2088318l-14.3835907-0.7990723
	c-0.9961395-0.0553589-1.7233582-0.9637451-1.5593414-1.9478455l0.1781006-1.068573
	C189.7162018,270.5924988,190.0184937,270.3513184,190.3607025,270.3714294z"/>
<path class="st29" d="M212.1500244,324.9620361l-1.2301025,4.7999268c-0.3498535,1.3701172-1.5699463,2.2399902-2.8798828,2.2399902
	c-0.4300537,0-0.8701172-0.0899658-1.2900391-0.289917c-0.5300293-0.25-0.9799805-0.6600342-1.2800293-1.1700439
	l-2.6099854-4.4299316c-0.5100098-0.880127-0.539917-1.960083-0.0799561-2.8701172l2.3199463-4.5200195
	c0.0699463-0.1398926,0.1500244-0.2698975,0.2301025-0.3898926c1.7099609,0.0899658,3.4799805,0.8199463,5.2199707,0.4399414
	c0.0599365,0.1201172,0.1098633,0.2399902,0.1499023,0.3601074l1.380127,4.1499023
	C212.2700195,323.8220215,212.2900391,324.4119873,212.1500244,324.9620361z"/>
<circle class="st29" cx="206.7108459" cy="230.5867462" r="16.5622044"/>
<path class="st5" d="M221.7142639,239.3549805c-0.1436157,1.4700775-0.2229156,2.8531342-1.131546,4.2680817
	c-2.5349274,3.9474945-8.9275665,4.5001373-15.0409698,4.5001373c-7.8556976,0-14.2240143-6.3683014-14.2240143-14.223999
	c0-7.9257507,7.3259125-14.1667328,14.2240143-14.2240143c5.9611359-0.0494995,9.9962463,4.5321503,11.4961243,6.2351837
	C217.7580261,226.7280426,222.415329,232.1788788,221.7142639,239.3549805z"/>
<polygon class="st29" points="231.3628693,203.6198425 229.4013367,210.6253052 251.7210693,211.2966614 250.357132,205.4511719 "/>
<path class="st29" d="M204.8393555,386.3294983l12.9457855,1.6664124c0.1456909,0.0187378,0.2929993-0.0193481,0.4113312-0.1063538
	l4.0455017-2.9750366c0.4492188-0.3303528,1.0570831,0.1127319,0.8800507,0.64151l-3.4272766,10.2373047
	c-0.1824951,0.5451355-0.9652252,0.5095825-1.0975189-0.0498657l-1.2801514-5.413147
	c-0.0514069-0.2173462-0.224762-0.3847961-0.4437714-0.4286499l-12.2189636-2.4455261
	c-0.2992096-0.059906-0.4985046-0.3443604-0.4526062-0.6460266l0,0
	C204.2484283,386.5032959,204.5315552,386.2898865,204.8393555,386.3294983z"/>
<path class="st29" d="M238.7266235,390.8312378l13.3688049,1.2658081c0.13591,0.0128784,0.2720642-0.0218201,0.3852234-0.098175
	l5.4280701-3.6619263c0.4342651-0.2929688,1.0063171,0.0837097,0.9088135,0.5983582l-1.975647,10.4269409
	c-0.0958862,0.506134-0.7492065,0.6543884-1.054184,0.2392273l-3.9229126-5.3403625
	c-0.0920563-0.1253357-0.2299194-0.209198-0.3835449-0.2333374l-12.9016876-2.0274048
	c-0.2866974-0.0450745-0.4979401-0.2920837-0.4979401-0.5823059l0,0
	C238.0816193,391.0705566,238.3806763,390.7984924,238.7266235,390.8312378z"/>
<circle class="st30" cx="226.8777618" cy="241.2060547" r="3.6047151"/>
<path class="st29" d="M270.231781,270.9205933h-23.771637c-1.6075134,0-2.9227448-1.3152466-2.9227448-2.9227295v-0.0000305
	c0-1.6074829,1.3152313-2.9227295,2.9227448-2.9227295h23.771637c1.6075134,0,2.9227295,1.3152466,2.9227295,2.9227295v0.0000305
	C273.1545105,269.6053467,271.8392944,270.9205933,270.231781,270.9205933z"/>
<path class="st31" d="M267.8935852,294.3025208h-13.0549164c-0.8609009,0-1.5587921-0.697876-1.5587921-1.5587769l0,0
	c0-0.8609009,0.6978912-1.5588074,1.5587921-1.5588074h13.0549164c0.8609009,0,1.5587769,0.6979065,1.5587769,1.5588074l0,0
	C269.4523621,293.6046448,268.7544861,294.3025208,267.8935852,294.3025208z"/>
<path class="st31" d="M267.8935852,299.1737671h-13.0549164c-0.8609009,0-1.5587921-0.6979065-1.5587921-1.5588074l0,0
	c0-0.8609009,0.6978912-1.5587769,1.5587921-1.5587769h13.0549164c0.8609009,0,1.5587769,0.697876,1.5587769,1.5587769l0,0
	C269.4523621,298.4758606,268.7544861,299.1737671,267.8935852,299.1737671z"/>
<path class="st31" d="M267.6987305,304.0450134h-13.0549164c-0.8609009,0-1.5587921-0.6979065-1.5587921-1.5588074l0,0
	c0-0.8609009,0.6978912-1.5588074,1.5587921-1.5588074h13.0549164c0.8609009,0,1.5588074,0.6979065,1.5588074,1.5588074l0,0
	C269.2575378,303.3471069,268.5596313,304.0450134,267.6987305,304.0450134z"/>
<path class="st31" d="M268.0884399,308.9162292h-13.0549316c-0.8608856,0-1.5587921-0.697876-1.5587921-1.5587769l0,0
	c0-0.8609009,0.6979065-1.5588074,1.5587921-1.5588074h13.0549316c0.8609009,0,1.5587769,0.6979065,1.5587769,1.5588074l0,0
	C269.6472168,308.2183533,268.9493408,308.9162292,268.0884399,308.9162292z"/>
<path class="st30" d="M267.6987305,313.7874756h-13.0549164c-0.8609009,0-1.5587921-0.6979065-1.5587921-1.5588074l0,0
	c0-0.8609009,0.6978912-1.5587769,1.5587921-1.5587769h13.0549164c0.8609009,0,1.5588074,0.697876,1.5588074,1.5587769l0,0
	C269.2575378,313.0895691,268.5596313,313.7874756,267.6987305,313.7874756z"/>
<path class="st31" d="M252.6930847,204.9564972c-0.7033386,0.902298-1.5383911,1.6112518-2.5443726,2.1548615
	c-3.2897491,1.7738037-6.8513184,0.9191284-9.9449463,0.1793365c-7.2912903-1.7485504-17.8891602-7.904953-19.887085-19.35466
	c-1.2161865-6.9634705,0.6696777-16.3339539,7.4565735-20.9547577c1.210556-0.823822,2.4462891-1.4095001,3.6792908-1.8214111
	l10.4353333,7.9609833c3.3906097,2.5892181,5.2176361,6.7364655,4.8365784,10.9845734l-0.4959869,5.528717
	c-0.3699188,4.1220245,0.8574524,8.230011,3.4242554,11.4777679L252.6930847,204.9564972z"/>
<path class="st29" d="M229.3403015,183.8276367c-1.8858337,3.081543-2.1607208,6.3469696,0.195755,7.7890778
	s4.4826813-0.6903687,6.368515-3.7719116s2.4889374-6.1461182,0.1324615-7.5882263
	C233.680542,178.8144684,231.22612,180.7460785,229.3403015,183.8276367z"/>
<path class="st29" d="M257.4288025,185.73909c-1.277832,9.8580933-2.1128693,15.8631897-4.7357178,19.2174072l-3.0403595-3.8445892
	c-2.566803-3.247757-3.7941742-7.3557434-3.4242554-11.4777679l0.4959869-5.528717
	c0.3810577-4.2481079-1.4459686-8.3953552-4.8365784-10.9845734l-10.4353333-7.9609833
	c3.1636505-1.0704346,6.2796783-1.014389,8.7512207-0.9695587c3.163681,0.0588531,12.8227997,0.2325745,16.8691406,6.5207062
	C258.9503479,173.6308594,258.4683838,177.705246,257.4288025,185.73909z"/>
<circle class="st30" cx="252.939682" cy="190.7297974" r="1.4010923"/>
<path class="st29" d="M301.1500244,316.1820068l-1.2301025,4.8099365c-0.3498535,1.3701172-1.579834,2.2399902-2.8898926,2.2399902
	c-0.4300537,0-0.8601074-0.0898438-1.2800293-0.289917c-0.5300293-0.2600098-0.9799805-0.6700439-1.2800293-1.1800537
	l-2.6099854-4.4299316c-0.5100098-0.8800049-0.539917-1.9599609-0.0799561-2.8699951l0.8898926-1.7301025
	c4.710083,1.4300537,3.7600098,1.4500732,7.1101074-2.1398926l1.3000488,3.9099121
	C301.2700195,315.052002,301.2900391,315.6320801,301.1500244,316.1820068z"/>
<path class="st29" d="M275.8866882,274.6670837l12.8199463-3.0255127c0.2881775-0.0680237,0.6024475,0.1315613,0.7441101,0.4725037
	l0.6724243,1.6183167c0.276062,0.6643982,0.0165405,1.3924866-0.5443726,1.5272827l-11.9878235,2.8806458
	c-0.8302307,0.1994934-1.715332-0.5404663-1.8979187-1.5866394l-0.1982117-1.1359863
	C275.4320984,275.0582275,275.6011353,274.7344666,275.8866882,274.6670837z"/>
<path class="st29" d="M267.8063965,216.4384918c0.8217773,0.4320068,5.6226807,3.0574951,7.1936035,8.8835449
	c1.8948975,7.0273438-2.5822754,12.5063477-3,13c0.7011719-0.1490479,5.6976318-1.2974854,8-6
	c1.2227783-2.4973145,1.1278076-4.857666,1-6c-0.2436523-1.2564697-0.9187012-3.7579346-3-6
	C274.1259766,216.148819,268.6419678,216.3883209,267.8063965,216.4384918z"/>
<circle class="st29" cx="99" cy="399.3220215" r="4"/>
<path class="st33" d="M459,164.3220367c-16.6919556,3.3746338-37.7119446,6.1604614-62,6
	c-22.5312805-0.1488647-42.1499939-2.7952881-58-6c-2.4914246-3.3049316-10.7628479-15.1203003-10-32
	c0.6407166-14.1773071,7.2945557-23.9604492,10-27.5349121c13.6562805-4.4203491,33.6043701-9.2146606,58-9.4650879
	c26.364502-0.2706299,47.7998047,4.8696289,62,9.4650879c2.8004761,4.1826782,8.2148438,13.5150757,9,26.5349121
	C469.0133667,148.1255646,461.6669922,160.3101349,459,164.3220367z"/>
<text transform="matrix(1 0 0 1 378.7177734 105.9616852)"><tspan x="0" y="0" class="st29 st34 st35">11010</tspan><tspan x="-45.3989258" y="18" class="st29 st34 st35">1010100101001010</tspan><tspan x="-49.1875" y="36" class="st29 st34 st35">10101010100101010</tspan><tspan x="-42.6459961" y="54" class="st29 st34 st35">1010101110011011</tspan></text>
<path class="st13" d="M697.1200562,313.9934082c-0.1547852,0.1515808-0.3321533,0.2741394-0.5256348,0.3612061l1.1931763,4.1503906
	l-9.868103-0.3708496l-0.0290527-0.0257874c0.0515747-0.2515259,0.4998779-4.5889893,0.6320801-5.8563538
	c-1.1931763-0.3418579-2.3057251-0.9223328-3.2667847-1.7092285l-0.1870117-0.1515503
	c-1.0480957-0.8610229-1.5673218-2.2090149-1.3609009-3.5505981l0.2289429-1.483429
	c0.0548096-0.3611755,0.0838623-0.7288208,0.0838623-1.0964661v-6.5432434l9.0296631-5.1598206l9.0296021,5.1598206
	c0,0,1.289978,9.0296326,1.289978,9.6746216C703.369873,307.898407,699.0033569,312.1745911,697.1200562,313.9934082z"/>
<path class="st51" d="M684.5543213,298.9518127L684.5543213,298.9518127
	c-0.6509399-0.3255005-0.9147949-1.1170654-0.5893555-1.7680359l0.0064087-0.0128174
	c0.4512329-0.9024353,1.1762695-1.6390686,2.0714111-2.1045532l2.8607178-1.4875793
	c2.4095459-1.2529297,5.2661743-1.3077087,7.7219238-0.1480408l3.132019,1.4790039
	c2.9574585,1.3965759,5.3250122,3.7949219,6.6832886,6.7701416l4.6344604,10.1516724
	c0.0228271,0.0500488,0.0394897,0.1026611,0.0496826,0.1567078l4.0250244,21.3633728
	c0.0789795,0.4191589-0.2425537,0.8068848-0.6690674,0.8068848h-3.2896118c-0.2491455,0-0.4783936-0.1360779-0.5976563-0.3547974
	l-9.3880615-17.2114258c-0.0620117-0.1136475-0.1182251-0.2303467-0.168457-0.3496704l-1.121582-2.6638184
	c-0.9177246-2.1795654-1.5363159-4.4732361-1.8389282-6.8186951l-0.1694336-1.3128967
	c-0.3892822-3.0169983-2.803833-5.3692932-5.8300171-5.6796875l-7.2877197-0.7474365
	C684.7075195,299.0117493,684.6278687,298.9885864,684.5543213,298.9518127z"/>
<path class="st13" d="M647.257019,275.4658508l-2.1500854-3.3446045c-0.4847412-0.7540283-0.677063-1.6592712-0.5407715-2.5452271
	l0.8886719-5.7761536c0.0737305-0.4791565,0.6783447-0.6471863,0.9887695-0.2747498l0,0
	c0.5375366,0.6450806,0.949707,1.3850098,1.215271,2.1816101l1.1896973,3.5690918
	c0.013916,0.0418091,0.0254517,0.0843811,0.0345459,0.1275024l1.2763062,6.0625305H647.257019z"/>
<path class="st50" d="M744.4386597,302.3774414l-7.3591919,17.9077148l-0.0644531,0.1547852
	c-0.1161499,0.2870178-0.2515259,0.5643616-0.4031372,0.8320313c-0.9674683,1.7446594-2.5734863,3.0636292-4.4987183,3.666687
	l-11.2096558,3.5183411l-1.2738647,0.3998718l-8.9458008,2.8088684c-1.6672363,0.5256348-2.7991333,2.0671387-2.7991333,3.815033
	v24.7315674c0,0.2160645-0.1741943,0.3901978-0.3901978,0.3901978h-26.7246094
	c-0.1740723,0-0.3288574-0.1160889-0.3740234-0.2870178l-1.5963135-5.8499146l-0.8223877-3.0184937l-0.9771118-3.5795898
	l-0.7223511-2.6508484l-1.9123535-7.0076599l-0.7772217-2.8443298l-0.1483765-0.5482483
	c-0.4675903-1.7188721-1.2060547-3.350647-2.1864624-4.8340759l-2.5669556-3.8891907l-0.9223022-1.393158l-8.465271-12.822113
	l-0.8482056-1.2867126l-7.0366821-10.6549988c-0.8287354-1.2512512-1.3931274-2.6572876-1.6575317-4.1342773l-0.3418579-1.8962402
	l-0.1934814-1.0674133l-2.9701538-16.4501038c-0.1483154-0.8158875,0.4772949-1.5672913,1.3060913-1.5672913h3.0378418
	c1.0706177,0,2.0026855,0.7288513,2.263855,1.7672424l4.0633545,16.2565918
	c0.8546143,3.4183655,2.4702759,6.6013184,4.7276611,9.3102112l8.5878296,10.3034668l0.8352661,1.0029602l6.31427,7.5784607
	c0.1096802,0.1289673,0.2902832,0.1741333,0.4483032,0.1096191l6.2111206-2.5895691
	c0.8319702-0.3450623,1.7316895-0.5062866,2.6314697-0.4740601l1.2415771,0.0483704l9.868103,0.3708496l2.9572144,0.1128845
	c1.0835571,0.0386963,2.1381226,0.3740845,3.0507813,0.9610291l3.9665527,2.5669861
	c0.0806274,0.0516052,0.1741333,0.0741882,0.2676392,0.0612793l14.8376465-2.1219788
	c1.1222534-0.15802,2.1994019-0.4869385,3.1990967-0.9577637c0.4127808-0.193512,0.8094482-0.4128113,1.1932373-0.6514282
	c1.4962769-0.938446,2.7669067-2.2283936,3.689209-3.7860107l1.425415-2.4025269l0.5740356-0.9707031l5.953064-10.0325623
	c0.364502-0.6127625,1.0223389-0.9868164,1.7350464-0.9868164h2.4057617
	C744.1161499,300.2973938,744.8449707,301.3873901,744.4386597,302.3774414z"/>
<path class="st13" d="M740.7585449,301.4929199l-1.2174072-5.7825317c-0.024353-0.1156921,0.0808105-0.2169495,0.1954956-0.1882629
	l0.8789063,0.2197266c0.0886841,0.0221558,0.1778564-0.0343018,0.1958008-0.1239014l0.5661011-2.8304138
	c0.1203613-0.6018677,0.9341431-0.7108459,1.2086792-0.1618652l1.1432495,2.2865601
	c0.3861694,0.7723999,0.4995728,1.652771,0.3216553,2.4978333l-0.9797974,4.6541138
	c-0.019104,0.0908508-0.1113281,0.1464539-0.2006226,0.1209106l-1.9993896-0.571228
	C740.8141479,301.5975342,740.770752,301.5509949,740.7585449,301.4929199z"/>
<g>
	<path class="st54" d="M691.6760864,429.9405518h-3.9104614c-0.0765381,0.1571655-0.1782227,0.3030396-0.3048096,0.429657
		l-1.505249,1.5052795c-0.0822754,0.1174927-0.3828735,0.3642883-0.5008545,0.4459229l-1.9564209,1.3544312
		c-1.1676636,0.8084412-1.5319824,2.370636-0.8422241,3.6121826c0.2399292,0.4318237,0.7182007,0.6745605,1.2084351,0.6133118
		l1.267395-0.1584473c2.019043-0.2523804,3.9372559-1.0272522,5.5650635-2.2481689l0.0700684-0.0525208
		c0.8283081-0.6212158,1.3157959-1.5961304,1.3157959-2.6315308
		C692.0828247,431.8331299,691.9390259,430.8692932,691.6760864,429.9405518z"/>
	<path class="st13" d="M689.9736938,426.8027954l-0.1381836-0.1843262
		c-0.3721924-0.4962769-1.0593872-0.6308594-1.5913086-0.3117065c-0.4110718,0.2466125-0.6378784,0.7125549-0.5784302,1.1882324
		l0.1669312,1.3348389c0.0137329,0.1101379,0.0487061,0.3007507,0.0787354,0.5097046
		c0.0456543,0.3182373-0.0083618,0.6380615-0.145813,0.9203186h3.9104614
		C691.3253174,429.0207825,690.7562256,427.8460999,689.9736938,426.8027954z"/>
</g>
<g>
	<polygon class="st13" points="702.079895,426.3899841 700.4674683,426.7124939 699.7103271,430.4984741 702.934021,430.3759766 	
		"/>
	<path class="st54" d="M703.3377686,432.2597351l-0.4037476-1.8837585l-3.2236938,0.1224976l-0.0046387,0.0228882
		c-0.1360474,0.680542-0.3881836,1.3326416-0.7453003,1.9277954l-1.6368408,2.7280579
		c-0.4346924,0.7245178-0.3635254,1.6447449,0.1773071,2.2937927l0.3033447,0.3639832
		c0.2571411,0.3085938,0.6381226,0.48703,1.039856,0.48703h1.7340698c0.3421631,0,0.6702271-0.1358948,0.9121704-0.3778381
		l0.2394409-0.2394104C703.154541,436.2799683,703.7598877,434.230011,703.3377686,432.2597351z"/>
</g>
<path class="st53" d="M686.1329346,351.924408c0,0.5579224-0.3934326,1.0545349-0.951355,1.1738586l-6.382019,1.3673401
	l-0.8223877-3.0184937l6.8270874-0.7191162c0.6417236-0.067749,1.222229,0.3837585,1.3157349,1.0255127
	C686.1296997,351.8115234,686.1329346,351.8695679,686.1329346,351.924408z"/>
<path class="st53" d="M707.8847046,353.9077148v2.2961121l-7.5881348-0.3966675
	c-0.2225342-0.0096741-0.4224854-0.1096191-0.567627-0.2612C699.5870972,355.3943787,699.5,355.1911926,699.5,354.968689
	c0-0.4547119,0.3612061-0.8255615,0.815918-0.838501L707.8847046,353.9077148z"/>
<path class="st53" d="M690.0092163,344.8006592c-0.112915,0.3966675-0.4385986,0.6933289-0.8417358,0.770752l-12.1674194,2.2961121
	l-0.7223511-2.6508484l12.5318604-1.7898254C689.5899658,343.3139954,690.2252808,344.0428162,690.0092163,344.8006592z"/>
<path class="st53" d="M707.8847046,346.2196045v2.6476135l-10.503479,0.428894h-0.0321655
	c-0.2677002,0-0.5160522-0.1515503-0.6353149-0.3934326c-0.2161255-0.4353333,0.0515747-0.9545288,0.5288696-1.028717
	L707.8847046,346.2196045z"/>
<path class="st53" d="M707.8847046,337.289917v2.2122803l-12.6286011-0.7739868
	c-0.2579956-0.0161133-0.4869385-0.1289978-0.6514282-0.3031311c-0.1644897-0.1773682-0.2644653-0.4127808-0.2644653-0.6707764
	c0-0.5546875,0.4611206-0.9964905,1.0158691-0.9739075L707.8847046,337.289917z"/>
<path class="st53" d="M683.9786987,331.8850403c0,0.3353882-0.1708984,0.6611023-0.4772949,0.8449097l-9.1360474,5.4790649
	l-0.7772217-2.8443298l8.9780884-4.3600464c0.4578857-0.2225342,1.0093384-0.0580444,1.2705688,0.3773193
	C683.9335327,331.539978,683.9786987,331.7141113,683.9786987,331.8850403z"/>
<path class="st53" d="M673.2914429,322.055603c0,0.1515808-0.0644531,0.2966919-0.1870117,0.3966675l-4.4180908,3.6408997
	l-0.9223022-1.393158l4.7341309-3.0765381c0.2805176-0.1838074,0.6610718-0.0516052,0.7675171,0.2676697
	C673.2849731,321.9459839,673.2914429,322.0007935,673.2914429,322.055603z"/>
<path class="st53" d="M671.0727539,313.4613342l-4.7631226,2.760498c-0.0612793,0.0322266-0.1257935,0.0483398-0.1870728,0.0483398
	c-0.1386719,0-0.2741089-0.0741577-0.3418579-0.2063599c-0.0806274-0.1644897-0.0322266-0.3676453,0.1193848-0.4740601
	l4.3374023-3.1313782L671.0727539,313.4613342z"/>
<path class="st53" d="M662.7912598,309.9236145c0,0.2838135-0.1676636,0.554718-0.4450073,0.6708069l-3.0474854,1.2834778
	l-0.8482056-1.2867126l3.3442383-1.3383484c0.3482056-0.1418762,0.7481689,0.0129089,0.9190674,0.3482971
	C662.7655029,309.7043457,662.7912598,309.8139954,662.7912598,309.9236145z"/>
<path class="st53" d="M653.7067871,292.0158997c0,0.1322327-0.0806274,0.2515259-0.2064209,0.2999268l-4.0858765,1.5898438
	l-0.1934814-1.0674133l4.0762329-1.1351624C653.5036011,291.6482544,653.7067871,291.7998352,653.7067871,292.0158997z"/>
<path class="st53" d="M720.9035034,328.4570007l-1.2738647,0.3998718l-1.7993774-3.7989197
	c-0.1483765-0.3192444-0.0194092-0.6997681,0.2966309-0.8577881l0.112854-0.0580444
	c0.3322144-0.1644897,0.7352905-0.0193481,0.8868408,0.3192444L720.9035034,328.4570007z"/>
<path class="st53" d="M728.7270508,321.1784363c0,0.1257935-0.0484009,0.2483215-0.1386719,0.338623
	c-0.2063599,0.2063904-0.5449829,0.1838074-0.7191772-0.045166l-1.8026733-2.3444519
	c0.4127808-0.193512,0.8094482-0.4128113,1.1932373-0.6514282l1.4060059,2.4638062
	C728.7077026,321.0139771,728.7270508,321.0978394,728.7270508,321.1784363z"/>
<path class="st53" d="M737.0794678,320.2851563l-0.0644531,0.1547852c-0.1161499,0.2870178-0.2515259,0.5643616-0.4031372,0.8320313
	l-4.2052002-2.1026306c-0.1870728-0.0935059-0.2612305-0.31604-0.1677246-0.5030823
	c0.0644531-0.1289673,0.1967163-0.2063904,0.3321533-0.2063904c0.0483398,0,0.0967407,0.0096741,0.1451416,0.0290222
	L737.0794678,320.2851563z"/>
<path class="st53" d="M737.7373657,313.206543c0,0.0516052-0.0064697,0.1064453-0.0258179,0.1612549
	c-0.0870972,0.2644348-0.3708496,0.4095459-0.6352539,0.3321533l-4.7019043-1.4124756l0.5740356-0.9707031l4.4309692,1.3995972
	C737.5986938,312.787323,737.7373657,312.9872742,737.7373657,313.206543z"/>
<path class="st53" d="M685.9714966,327.0638428h14.6572266c0.4452515,0,0.8062134,0.3609619,0.8062134,0.8062134l0,0
	c0,0.445282-0.3609619,0.8062439-0.8062134,0.8062439h-14.6572266c-0.508728,0-0.8903198-0.4654541-0.7905273-0.9643555l0,0
	C685.2562866,327.3351135,685.5872192,327.0638428,685.9714966,327.0638428z"/>
<path class="st55" d="M787.6217041,438.3220215H723.355957c-1.9675293,0-3.5625-1.5949707-3.5625-3.5625v-32.3347778
	c0-1.9674988,1.5949707-3.5625,3.5625-3.5625h67.5157471c1.9675293,0,3.5625,1.5950012,3.5625,3.5625v29.0847778
	C794.4342041,435.2719727,791.3841553,438.3220215,787.6217041,438.3220215z"/>
<path class="st31" d="M743.6542969,404.0015564c-0.0799561,0.5379944-0.2596436,1.0267944-0.5487671,1.4871521
	c-0.9463501,1.5039063-2.6202393,1.9836121-4.0736694,2.4013672c-3.4265747,0.9825745-9.2530518,0.9147339-12.7591553-3.3561401
	c-2.1328125-2.5971985-3.5450439-6.9163818-1.817627-10.4168396c0.3081665-0.6242065,0.6825562-1.1557617,1.0964355-1.6147461
	l6.1814575,0.8526917c2.0090942,0.2781067,3.7356567,1.5668945,4.5720215,3.4141235l1.0884399,2.4040833
	c0.8115234,1.7924194,2.2807007,3.2052917,4.1029663,3.9487L743.6542969,404.0015564z"/>
<path class="st29" d="M729.0456543,400.7221375c-0.0593262,1.7165833,0.5910034,3.1322632,1.9036865,3.1776733
	c1.3126831,0.0453796,1.6936035-1.3346863,1.7529297-3.051239c0.0593262-1.7165833-0.4082031-3.125946-1.7208252-3.1713257
	C729.6687622,397.6318665,729.1050415,399.0055847,729.0456543,400.7221375z"/>
<path class="st29" d="M741.1171875,394.9403992c1.7780151,4.3787231,2.8376465,7.0592651,2.5371094,9.0611572l-2.1578979-0.8796082
	c-1.8222656-0.7434082-3.2914429-2.1562805-4.1029663-3.9487l-1.0884399-2.4040833
	c-0.8363647-1.847229-2.5629272-3.1360168-4.5720215-3.4141235l-6.1814575-0.8526917
	c1.0587769-1.1832886,2.3613892-1.8892517,3.3947144-2.4490662c1.3230591-0.7159424,5.361084-2.9042969,8.5070801-1.2488708
	C738.9135132,389.5734253,739.6674805,391.3723755,741.1171875,394.9403992z"/>
<circle class="st30" cx="740.4272461" cy="398.0562134" r="0.666106"/>
<path class="st29" d="M791.1828003,390.8521118l2.3322754,0.362793c0.6643677,0.1030884,1.1320801,0.6454773,1.1918335,1.2654419
	c0.0195923,0.2035217-0.0032959,0.4111328-0.0788574,0.6189575c-0.098877,0.2626953-0.2723999,0.4943237-0.500061,0.6595764
	l-1.977356,1.4370728c-0.3931885,0.2814941-0.9028931,0.3448792-1.3545532,0.1687012l-0.8592529-0.3422241
	c0.4619751-2.2941589,0.5147705-1.845459-1.336853-3.2671509l1.7910156-0.7934875
	C790.6425781,390.8468323,790.9161987,390.8109131,791.1828003,390.8521118z"/>
<path class="st1" d="M788.9460449,391.6611023c0.2197266,0.2270813,0.4162598,0.4205322,0.5941162,0.5898743
	c1.6802368,1.620636,1.6781616,1.1688538,0.9614868,3.3966064c-0.0250854,0.0803833-0.0549927,0.1654358-0.0802002,0.2506409
	c-2.5673218,1.4221191-5.6489868,2.897644-9.222229,4.1938171c-2.7409058,0.9960938-5.3204346,1.7191162-7.6448364,2.2513428
	c-6.539917,2.4265137-13.0751343,4.8577271-19.6149902,7.2842407l-8.7409668-5.9593201l1.2685547-2.2471619
	c3.5408325-0.7736816,7.1999512-1.5073547,10.9723511-2.1964417c4.583252-0.8373108,9.0359497-1.5484924,13.3491821-2.1572571
	c2.2910767-1.1080933,5.010437-2.2377319,8.1358643-3.1942139
	C782.6949463,392.7229309,786.0067749,391.993042,788.9460449,391.6611023z"/>
<path class="st29" d="M772.1564941,395.9921265l2.2629395,5.8391113c0.0509033,0.1312561-0.022522,0.2922974-0.1738281,0.3812866
	l-0.7180786,0.4224854c-0.2948608,0.1734314-0.6546631,0.0988159-0.7548218-0.1564941l-2.1403198-5.4567261
	c-0.1482544-0.3778992,0.142334-0.8430786,0.6230469-0.997467l0.5219727-0.1676331
	C771.9425659,395.8036499,772.1060791,395.8620605,772.1564941,395.9921265z"/>
<path class="st56" d="M799.9639893,410.7477112H730.071167c-0.7105103,0-1.3610229-0.3985901-1.6835938-1.0317078
	l-5.5302734-10.8537598h72.7391357l5.2894287,10.3811035C801.2366333,409.9317017,800.7365723,410.7477112,799.9639893,410.7477112z
	"/>
<path class="st49" d="M707.8847046,371.8896179c-0.3224487,1.9340515-5.15979,55.7903137-5.15979,55.7903137h-2.6464233
	c-0.3249512,0-0.59375-0.2530212-0.6132813-0.5773926l-3.1900635-52.9555054l-9.7422485,19.7710266
	c-0.7944336,1.6122742-1.0582275,3.4346008-0.753479,5.2059631l4.5266724,26.3111877
	c0.0944824,0.5491333-0.2261963,1.0849609-0.7548218,1.2611389l-2.1264648,0.7088318
	c-0.4520874,0.1506958-0.9396362-0.1002197-1.079834-0.5556946l-8.1824341-26.592926
	c-0.3904419-1.2688904-0.5204468-2.6036072-0.3822632-3.9240112l2.6929932-25.7328796v-9.9971313h26.4070435
	c0.5546875,0,1.0043945,0.449707,1.0043945,1.004425V371.8896179z"/>
</svg>
