<?xml version="1.0" encoding="utf-8"?>
<!-- Generator: Adobe Illustrator 22.0.1, SVG Export Plug-In . SVG Version: 6.00 Build 0)  -->
<svg version="1.1" id="Слой_1" xmlns="http://www.w3.org/2000/svg" xmlns:xlink="http://www.w3.org/1999/xlink" x="0px" y="0px"
	 viewBox="0 0 905.0499268 475.2426758" style="enable-background:new 0 0 905.0499268 475.2426758;" xml:space="preserve">
<style type="text/css">
	.st0{fill:#F8D6D5;}
	.st1{fill:#D3E1EA;}
	.st2{fill:#EDF5F8;}
	.st3{fill:#FFFFFF;}
	.st4{fill:#AFC4D5;}
	.st5{fill:#C9D9E6;}
	.st6{fill:#272264;}
	.st7{fill:#FDFFFF;}
	.st8{fill:#FC4944;}
	.st9{fill:#FF8302;}
	.st10{fill:#F9B700;}
	.st11{fill:#FFCFC6;}
	.st12{fill:#01D26C;}
	.st13{fill:#FF4647;}
	.st14{fill:#FFB200;}
	.st15{fill:#80284E;}
	.st16{fill:#1A005B;}
	.st17{fill:#F5D4C1;}
</style>
<path class="st1" d="M873.6155396,451.8220215l-55.6912842-152.0221558
	c-8.5952148-23.462616-38.524292-30.2613831-56.4125366-12.8148193l-20.175415,19.6772766
	c-11.7991333,11.5077515-31.1550293,9.4471741-40.2669678-4.2867432l-76.4939575-115.2953186
	c-20.229248-30.490387-65.4519653-29.1022644-83.7730713,2.5714264L477.8485718,298.48703
	c-8.5585938,14.7961731-27.1558533,20.3735962-42.4444275,12.7293091L334.250824,260.639679
	c-22.7086792-11.3543549-50.3135681-4.1936035-64.6395569,16.7675781l-59.08078,86.444519
	c-6.2363281,9.1247253-18.2897034,12.1804199-28.1199341,7.1287842l-16.082428-8.2645569
	c-6.9065094-3.5491943-14.283432-5.4828491-21.6600342-5.8978271c-19.8995056-1.1195068-38.6627274,9.4020081-48.9213333,26.4901428
	l-41.1311874,68.5137024H873.6155396z"/>
<path class="st1" d="M343.1155701,77.3220367H217.5455627c3.5499878-3.7000122,8.539978-6,14.0700073-6
	c3.0499878,0,5.9400024,0.7000122,8.5100098,1.9500122c3.2199707-7.6600342,9.9899902-13.450016,18.25-15.3000526
	c4.8200073-9.2999878,14.539978-15.6499634,25.7399902-15.6499634c11.0700073,0,20.6799927,6.1900024,25.5700073,15.2999878
	c1.1099854-0.2000122,2.2600098-0.2999878,3.4299927-0.2999878c7.539978,0,14.0900269,4.1599731,17.5,10.3200111
	c0.7999878-0.210022,1.6400146-0.3200073,2.5-0.3200073C338.6355896,67.3220367,343.1155701,71.8020172,343.1155701,77.3220367z"/>
<path class="st1" d="M854.4138794,164.3220367h-96.8683472c2.7385864-2.8542938,6.5880127-4.6285706,10.8540649-4.6285706
	c2.3528442,0,4.5822754,0.5400085,6.5648193,1.5042877c2.4840088-5.9091644,7.706604-10.3757172,14.0786133-11.802887
	c3.7182617-7.1742859,11.2165527-12.0728302,19.8565674-12.0728302c8.5396729,0,15.953125,4.7751465,19.7254028,11.8028412
	c0.8562622-0.1542969,1.7434082-0.2314148,2.6459961-0.2314148c5.8165283,0,10.8694458,3.2091217,13.5,7.9611511
	c0.6171265-0.1620178,1.2651367-0.2468719,1.9285889-0.2468719
	C850.9578857,156.6077423,854.4138794,160.063736,854.4138794,164.3220367z"/>
<path class="st1" d="M69.1155701,115.3220367c5.2733002,0.5288239,11.7926636,1.6493683,19,4
	c8.8746185,2.8944092,15.9079132,6.71315,21,10c-8.3333282,3.6666718-16.6666718,7.3333282-25,11
	c-1.2644348-3.6990509-3.1489868-8.1947784-6-13C75.1086273,122.2540131,71.8812256,118.282135,69.1155701,115.3220367z"/>
<path class="st1" d="M69.1155701,170.3220367c5.2733002-0.5288239,11.7926636-1.6493683,19-4
	c8.8746185-2.8944092,15.9079132-6.71315,21-10c-8.3333282-3.6666718-16.6666718-7.3333282-25-11
	c-1.2644348,3.6990509-3.1489868,8.1947784-6,13C75.1086273,163.3900604,71.8812256,167.3619385,69.1155701,170.3220367z"/>
<polygon class="st1" points="166.1155701,178.3220367 138.6869965,178.3220367 136.1155701,162.0363159 163.5441437,162.0363159 "/>
<path class="st2" d="M207.1155701,143.3220367H66.995575c-0.0300293-1.4899902,0.6799927-2.9899902,2.1300049-3.8800049
	c12.5499878-7.6900024,42.7999878-24.1199951,71.9899902-24.1199951
	C179.2255554,115.3220367,207.1155701,128.1320343,207.1155701,143.3220367z"/>
<path class="st1" d="M207.1155701,143.3220367c0,15.1900024-27.8900146,27-66,27
	c-29.1500244,0-59.3400269-15.7999878-71.9299927-23.2200317c-1.4400024-0.8599854-2.1699829-2.3099976-2.1900024-3.7799683
	H207.1155701z"/>
<path class="st1" d="M67.1155701,143.3220367l24.8492889-5.9498291c30.3262177-7.2612152,61.9500275-7.1575928,92.2280121,0.3022003
	l22.922699,5.6476288H67.1155701z"/>
<path class="st2" d="M207.1155701,143.3220367l-23,11c-25.2395325,8.813797-53.2944336,10.3444519-79,3l-38-14H207.1155701z"/>
<path class="st3" d="M612.2822266,396.3220215h-296.333313c-6.5353699,0-11.8333435-5.2979431-11.8333435-11.833313V250.155365
	c0-6.5353699,5.2979736-11.8333282,11.8333435-11.8333282h296.333313c6.5354004,0,11.833313,5.2979584,11.833313,11.8333282
	v134.3333435C624.1155396,391.0240784,618.817627,396.3220215,612.2822266,396.3220215z"/>
<rect x="429.1155701" y="379.3220215" class="st2" width="71" height="63"/>
<path class="st3" d="M413.6989136,451.8220215h100.833313c1.9790039,0,3.583313-1.6043091,3.583313-3.583313v-2.8333435
	c0-1.9790039-1.6043091-3.5833435-3.583313-3.5833435h-100.833313c-1.9790344,0-3.5833435,1.6043396-3.5833435,3.5833435v2.8333435
	C410.1155701,450.2177124,411.7198792,451.8220215,413.6989136,451.8220215z"/>
<rect x="316.1155701" y="247.3220367" class="st4" width="297" height="126"/>
<rect x="325.1155701" y="259.3220215" class="st5" width="234" height="34"/>
<rect x="325.1155701" y="302.3220215" class="st5" width="79" height="55"/>
<rect x="415.1155701" y="328.3220215" class="st5" width="92" height="29"/>
<rect x="565.1155396" y="259.3220215" class="st5" width="39" height="34"/>
<rect x="515.1155396" y="302.3220215" class="st5" width="89" height="17"/>
<rect x="515.1155396" y="326.3220215" class="st5" width="89" height="31"/>
<path class="st0" d="M565.671936,322.63974l-11.7561035,4.3175659l-1.0976563-6.3536682
	c0.6715088,0.0258179,1.3474121,0,2.0275269-0.0903931l2.1566162-0.2841187
	c0.314209-0.0387268,0.6156006-0.1506653,0.8781128-0.3271484l1.2527466-0.8351135
	c0.736084-0.4907227,1.3429565-1.1192322,1.7993164-1.8381042L565.671936,322.63974z"/>
<path class="st6" d="M591.4481812,386.0646362l-2.6904297,55.2159119c0.0172729,0.0602722,0.1851807,0.6930542-0.2410278,1.2225647
	c-0.0559692,0.0688477-0.1161499,0.1291199-0.1765137,0.1764526c-0.3400269,0.2798157-0.7317505,0.3056641-0.8005981,0.309967
	c-0.0990601,0.0301208-0.8049927,0.2152405-1.463623-0.2367859c0-0.0042725-0.0043335-0.0042725-0.0043335-0.0042725
	c-0.6241455-0.4347839-0.718811-1.1192322-0.7317505-1.2225342l-9.7758789-53.7523499l-3.5772095,56.339447
	c-0.0214844,0.3185425-0.1420288,0.6026306-0.3357544,0.8221741c-0.2582397,0.309967-0.6456909,0.4993591-1.0761719,0.4993591
	h-0.5810547c-0.3185425,0-0.6070557-0.1248474-0.8222656-0.3357849c-0.1850586-0.1721497-0.31427-0.4089355-0.3529053-0.6758118
	l-8.40271-56.6493835v-5.6218872l31.0322266-1.7089539V386.0646362z"/>
<path class="st7" d="M560.3275757,382.1532898h0.0656128c0.0162964,0,0.0325317-0.0004578,0.0488281-0.0013428l30.8599854-1.7009583
	c0.0963135-0.0053101,0.1911011-0.0262756,0.2807007-0.0621033l0.2802734-0.1121521
	c0.447998-0.1791992,0.6707153-0.6835327,0.5012817-1.1353149l-0.194519-0.5186157
	c-0.1384277-0.3692627-0.5040283-0.6027832-0.8972778-0.5732422l-31.0114136,2.3316956
	c-0.4629517,0.0348206-0.8207397,0.4205627-0.8207397,0.8847656l0,0
	C559.4403076,381.7560425,559.8375244,382.1532898,560.3275757,382.1532898z"/>
<path class="st8" d="M560.9324951,317.2287598c-0.4563599,0.7188721-1.0632324,1.3473816-1.7993164,1.8381042l-1.2527466,0.8351135
	c-0.2625122,0.1764832-0.5639038,0.2884216-0.8781128,0.3271484l-2.1566162,0.2841187
	c-0.6801147,0.0903931-1.3560181,0.1162109-2.0275269,0.0903931c-3.7192383-0.1592712-7.1931152-2.0791626-9.3023682-5.2388
	c-0.520874-0.4519653-1.3301392-1.2698364-1.9629517-2.5138855c-0.619812-1.2182312-0.8006592-2.3331604-0.8609009-3.0132751
	c1.4764404-4.2874451,4.1195679-6.0609741,6.3234863-7.1113281c1.9844971-0.9470215,4.2960815-0.9212036,6.2633057,0.0602722
	l3.2543945,1.6271667c2.5009766,1.2483521,4.291748,3.577179,4.8641968,6.3149414l0.3874512,1.8639221
	C562.1248779,314.2241211,561.793396,315.8814087,560.9324951,317.2287598z"/>
<path class="st9" d="M572.7703247,449.592865l-0.9815063,1.7649231c-0.3271484,0.5940552-0.9556274,0.9642334-1.6358032,0.9642334
	h-3.4307861c-0.4046021,0-0.7920532-0.1592712-1.0804443-0.4476929l-0.5639038-0.5639038
	c-0.3701782-0.3702087-0.3186035-0.9857483,0.1118774-1.2870789l3.1854858-2.2255249
	c0.1893921-0.1334229,0.31427-0.3400574,0.3486938-0.5725098l0.2108765-1.4808044
	c0.0301514-0.2367554,0.1119385-0.4519958,0.2367554-0.6457214c0.21521,0.2109375,0.5037231,0.3357849,0.8222656,0.3357849
	h0.5810547c0.430481,0,0.8179321-0.1893921,1.0761719-0.4993591l1.1708984,2.3417358
	C573.1878662,448.0087585,573.1705933,448.8782959,572.7703247,449.592865z"/>
<path class="st9" d="M592.640564,449.1580811l-0.5681763,0.5639343c-0.2841187,0.2884216-0.6757813,0.4476929-1.0804443,0.4476929
	h-3.4308472c-0.6801147,0-1.3043213-0.3702087-1.6357422-0.9642334l-0.9814453-1.7649536
	c-0.3960571-0.7145386-0.4175415-1.5841064-0.0516968-2.3158875l1.1837769-2.3718872
	c0.6586304,0.4520264,1.364563,0.2669067,1.463623,0.2367859c0.0688477-0.004303,0.4605713-0.0301514,0.8005981-0.309967
	c0.2324829,0.2453918,0.3917847,0.5596008,0.4390869,0.9125977l0.2109375,1.4808044
	c0.0344849,0.2324829,0.1593628,0.4390869,0.3530273,0.5725403l3.1810913,2.2254944
	C592.954834,448.1723328,593.0065308,448.7879028,592.640564,449.1580811z"/>
<path class="st10" d="M592.9763794,378.5013733c0,0-33.8002319,2.1652222-33.8260498,2.1264954l-3.1294556-24.863739
	l-0.1162109,4.4466858c-0.0817871,3.0218811-1.678894,5.7984009-4.2487793,7.3825073l-30.730896,18.9964905
	c-0.7964478,0.4778137-1.7778931,0.4562988-2.5355225-0.0387573c-0.1205444-0.0731506-0.2367554-0.1635742-0.3443604-0.2625732
	l-0.4735107-0.4390869c-0.4864502-0.4519653-0.7403564-1.0589294-0.7576294-1.670166
	c-0.0258179-0.6629333,0.223877-1.3301697,0.744751-1.8252258l25.4663086-24.1018066
	c0.0301514-0.0258179,0.0430908-0.0645447,0.0430908-0.107605l2.6559448-25.59552
	c0.1722412-1.6400757,1.2612915-3.043396,2.8066406-3.6116028l5.3851318-1.9801636l11.7561035-4.3175659l4.8900757-1.7950439
	c0.0689087-0.0129089,0.1204834-0.0688782,0.1248169-0.1377563l0.5682373-9.9523621
	c0.2540283-4.4768677-1.3990479-8.8504028-4.5500488-12.0401611l-14.1450806-14.3087158
	c-0.5682373-0.5725098-0.8825073-1.3085938-0.9341431-2.0619202c-0.0602417-0.8523254,0.2109375-1.7261658,0.8222046-2.410614
	c0.6456909-0.7188721,1.5367432-1.0890808,2.4364014-1.0890808c0.1593018,0,0.3185425,0.0129089,0.4778442,0.0387268
	c0.5767822,0.0817871,1.1364136,0.3185425,1.6142578,0.7189026l21.1832275,17.6792297
	c3.779541,3.1553345,5.9748535,7.8172913,6.0006714,12.7375183l0.1765137,32.0309753
	c0.0172119,3.1036987,0.4433594,6.1901245,1.2741699,9.1861877l7.4987793,27.0806274
	C593.1356812,378.4023438,593.0710449,378.4927368,592.9763794,378.5013733z"/>
<path class="st11" d="M518.3894653,386.5510559l-2.5655518,3.1381226c-0.3271484,0.4003296-0.843689,0.5983582-1.355957,0.5208435
	l-4.3606567-0.6715088c-0.2711487-0.0430603-0.5208435-0.1592712-0.731781-0.3357544
	c-0.6887512-0.5940552-2.2599487-1.9758606-2.2599487-2.311615c0-0.3357849,2.1049805-0.1463623,3.0261841-0.0473328
	c0.2754517,0.0300903,0.5553284-0.0215454,0.8049622-0.1463623l3.7966919-1.8983459
	c0.0817871-0.0387573,0.1635742-0.0732117,0.2496948-0.0990295l1.8208618-0.5208435
	c0.0172729,0.6112366,0.2711792,1.2182007,0.7576294,1.670166l0.4735107,0.4390869
	C518.15271,386.3874817,518.2689209,386.4779053,518.3894653,386.5510559z"/>
<path class="st11" d="M555.3622437,278.8828125c-0.1593018-0.0258179-0.3185425-0.0387268-0.4778442-0.0387268
	c-0.8996582,0-1.7907104,0.3702087-2.4364014,1.0890808c-0.6112671,0.6844482-0.8824463,1.5582886-0.8222046,2.410614
	l-0.2884521-0.094696c-0.7231445-0.2410583-1.248291-0.8652649-1.364502-1.6142578l-0.6242065-4.0592957
	c-0.0301514-0.206604-0.0947266-0.4089355-0.1894531-0.5983582l-0.4949951-0.9900513
	c-0.3917236-0.7834778-0.2367554-1.7261963,0.3788452-2.3417358c0.3917236-0.3917236,0.9082642-0.5940552,1.4334106-0.5940552
	c0.3572998,0,0.7188721,0.0947266,1.041748,0.2884216l2.1652222,1.2999878
	c0.4993896,0.2970276,0.84375,0.7963867,0.951355,1.3645935L555.3622437,278.8828125z"/>
<path class="st12" d="M301.7602234,353.2151184c0,0.2687073-0.0839844,0.5178223-0.223938,0.7221375
	c-0.2406616,0.349884-0.6465454,0.5710144-1.0999756,0.5542297l-20.0718384-0.7417603
	c-0.8453369-0.0307922-1.6794434-0.2015076-2.4687805-0.5010071l-14.3422241-5.43573
	c-1.1783752-0.4478455-2.4099731,0.5178223-2.2560425,1.7689819l2.8998413,23.7441711
	c0.0139771,0.1287842-0.0895996,0.2435303-0.2211304,0.2351379l-39.1080627-2.2168579
	c-0.131546-0.0083618-0.2211304-0.1315308-0.1931458-0.2575073l6.283844-27.2289734
	c0.2043152-0.8900757-0.4562836-1.7493896-1.3715363-1.7745667l-18.8850861-0.5402222
	c-3.621933-0.1035461-7.1710815-1.046814-10.3675842-2.7570496l-13.8356171-7.4062195
	c-0.4394379-0.2351379-0.7193451-0.6633606-0.7781372-1.1308289c-0.0307617-0.2434998-0.0028076-0.4981995,0.0951843-0.7389221
	l0.1455536-0.361084c0.1175385-0.2966919,0.3302612-0.5262146,0.5905914-0.6661682
	c0.3246918-0.1791382,0.7221375-0.2183228,1.0944366-0.0755615l14.0399017,5.2901611
	c2.6059265,0.9796448,5.491745,0.8956909,8.0332184-0.2407227l23.2207794-10.3703918
	c2.2980194-1.0272522,4.8423004-1.3631287,7.3278656-0.9684753l5.2089691,0.8285217l9.5838776,1.5198669l3.0117493,0.4786377
	c2.6423035,0.4170532,5.024292,1.8277588,6.6645203,3.9410095l13.5977173,17.5247498
	c0.8453064,1.0916138,2.0656433,1.8277588,3.4231873,2.0684814l18.8262939,3.3364563
	c0.3414612,0.061554,0.6325684,0.237915,0.8424988,0.48703c0.0028076,0.0028076,0.0056152,0.0083923,0.0084229,0.0111694
	C301.6398926,352.5601501,301.7602234,352.8764343,301.7602234,353.2151184z"/>
<polygon class="st13" points="251.0977783,423.9578247 254.4566193,447.1897888 254.1711121,447.2765503 250.8178711,448.3093872 
	250.7731171,448.2310181 243.8202972,435.7137451 241.5810699,448.5892944 237.942337,448.5892944 235.1433105,428.4362793 
	227.8658295,416.1205444 225.9065094,374.6948853 244.3101349,372.3856812 263.9733276,376.3742981 "/>
<path class="st14" d="M246.2106781,452.5611267l-2.8298492,0.7557373c-0.0783386,0.0195618-0.162323,0.0167847-0.2350769-0.0140076
	l-4.0838013-0.7949219c-0.0894928-0.0330811-0.4235535-0.2352295-0.5598145-0.5598145
	c-0.0713196-0.1699219-0.0038757-0.6098022-0.018158-0.7935486l-0.1861572-2.3945313
	c-0.0112152-0.0588074-0.0056-0.1175537,0.0112-0.1707458h2.9613647l1.9201355,2.1608276
	c0.0475616,0.0503845,0.1035614,0.0895691,0.1679382,0.111969l2.8746033,0.9572754
	C246.5969238,451.9397278,246.5801392,452.4631348,246.2106781,452.5611267z"/>
<path class="st14" d="M255.8561249,450.1455383l-1.746582,1.3575439c-0.1427612,0.1091614-0.2939148,0.2043457-0.4562531,0.2799072
	l-3.3952179,1.2847595c-0.1622925,0.0783691-0.671814,0.3442688-0.8397064,0.2799072l-1.3435516-0.3694763
	c-0.49263-0.1959534-0.5570068-0.8677368-0.1119385-1.1560059l2.5526886-1.6402283
	c0.1903381-0.1203613,0.3023071-0.3302917,0.2995148-0.5542297c-0.0028076-0.3470764-0.0140076-0.8872986-0.0419617-1.396698
	l0.044754,0.0783691l3.353241-1.0328369l1.7633972,1.9117432
	C256.1947937,449.4682007,256.1584473,449.9104309,255.8561249,450.1455383z"/>
<path class="st15" d="M225.0049896,369.0968323l-0.9317627,5.2728577c-0.2147217,1.2150269,0.4524841,2.3947754,1.4163055,2.504303
	l16.3310242,1.8557739c0.5094757,0.0578918,0.9780426-0.3623047,1.1126099-0.9977722l0.6072235-2.8674927l2.2399902,3.3656311
	c0.7123566,1.070343,1.7432556,1.7022705,2.8374939,1.7393494l17.790329,0.6029358
	c0.7270813,0.0246582,1.1642151-1.0299072,0.7437439-1.79422l-3.0032654-5.4593201L225.0049896,369.0968323z"/>
<polygon class="st1" points="243.260498,423.6779175 237.6624298,410.5224609 242.9805908,395.1278076 246.0595245,404.924408 "/>
<path class="st16" d="M259.5116882,331.4414673c1.5618286,2.5386963,1.7437744,5.6932068,0.4842224,8.3942871l-1.1168213,2.3875732
	c-0.5150452,1.108429-1.2623596,2.0964661-2.1888428,2.8969727l-5.3013611,4.5848389
	c-0.6577911,0.5682068-1.6010284-0.2295227-1.1504211-0.9712524l1.9677277-3.2524719
	c1.2707672-2.0992737,1.732605-4.587616,1.3043518-7.0032043l-1.0132446-5.7044067
	c-0.361084-2.0265198,0.0279846-4.1145935,1.091629-5.8751831l0.7081299-1.1699829l4.0894165-6.7652588
	c0.537384-0.884491,0.7557068-1.9285278,0.624176-2.95578l-0.6297913-4.8703003
	c-0.1791382-1.3995361-0.9992676-2.6366882-2.2196045-3.3476563l-2.7122803-1.5814514
	c-1.184021-0.6913452-2.6954651-0.3918457-3.5267792,0.6969604l-4.7695465,6.233429
	c-0.6717834,0.8789063-0.9516907,1.9957275-0.7725372,3.0873413l1.4163208,8.6686096l0.1007233,0.6269836
	c0.2883148,1.771759,0.0783844,3.5883484-0.6101685,5.2453918l-3.6583557,8.8085327
	c-0.9544373,2.3036194-1.4470673,4.7751465-1.4470673,7.2690735v2.0852966c0,1.4638977-1.9565277,1.9537048-2.6450806,0.6633606
	l-2.0041046-3.7423096c-1.1112518-2.0768738-1.0636139-4.5848083,0.1231689-6.6224976l2.6170502-4.4896545
	c0.8789368-1.5030823,1.2791748-3.2384644,1.1476288-4.9766846l-1.1308136-14.8600464
	c-0.218338-2.8717957,0.9824677-5.6708374,3.2160797-7.4902039l3.7003174-3.0201416
	c2.1104736-1.721405,4.9347229-2.2924194,7.5489807-1.5226746l2.692688,0.7921143
	c1.6402283,0.4814453,2.9025574,1.7969971,3.316864,3.4568176l2.0097046,8.0360107
	c0.2602844,1.046814,0.2267151,2.1468506-0.0979919,3.1741028l-2.3063965,7.2690735
	c-0.5289917,1.6738281-0.3050842,3.4931946,0.6129761,4.9878845L259.5116882,331.4414673z"/>
<path class="st17" d="M258.3864746,318.9633789l-3.3252869,5.5028992l-9.5838776-1.5198669l-1.0971985-6.7204895
	c-0.1791534-1.0916138,0.1007538-2.2084351,0.7725372-3.0873413l4.7695465-6.233429
	c0.8313141-1.0888062,2.3427582-1.3883057,3.5267792-0.6969604l2.7122803,1.5814514
	c1.2203369,0.710968,2.0404663,1.9481201,2.2196045,3.3476563l0.6297913,4.8703003
	C259.1421814,317.0348511,258.9238586,318.0788879,258.3864746,318.9633789z"/>
<path class="st14" d="M305.1134644,349.1677246c0.0028076,0.036377,0.0028076,0.0755615,0,0.111969l-0.48703,4.6295776
	c-0.036377,0.3386841-0.3554688,0.5737915-0.6913452,0.5066223l-2.3988037-0.4786377
	c0.1399536-0.2043152,0.223938-0.4534302,0.223938-0.7221375c0-0.3386841-0.1203308-0.6549683-0.324646-0.9013062
	l0.8256836-0.2071228c0.2099304-0.050354,0.3722839-0.2127075,0.4226685-0.4226379l1.0048523-4.0166016
	c0.0195618-0.0811768,0.0587463-0.1567383,0.1091614-0.2211304l0.1399536-0.1763611
	c0.3274536-0.4086304,0.98526-0.2099304,1.0328064,0.31073L305.1134644,349.1677246z"/>
<path class="st14" d="M186.5521393,328.4828796c-0.2603302,0.1399536-0.473053,0.3694763-0.5905914,0.6661682l-0.1455536,0.361084
	c-0.0979919,0.2407227-0.125946,0.4954224-0.0951843,0.7389221c-0.0391693-0.0055847-0.075592-0.0139771-0.1119385-0.0223694
	l-4.7667542-1.4359131c-0.2546997-0.0671692-1.2679749-0.6129761-1.3995209-0.8396912l-1.2903442-1.8893433
	c-0.2099304-0.3554993-0.1763458-0.8033447,0.0811462-1.1252136l0.1987457-0.2491455
	c0.2575226-0.3190613,0.680191-0.4506226,1.0720215-0.3330688l5.0466614,1.5366821
	c0.2211304,0.0671692,0.4114532,0.2099304,0.5401917,0.4030457L186.5521393,328.4828796z"/>
</svg>
