<?xml version="1.0" encoding="utf-8"?>
<!-- Generator: Adobe Illustrator 22.0.1, SVG Export Plug-In . SVG Version: 6.00 Build 0)  -->
<svg version="1.1" id="Слой_1" xmlns="http://www.w3.org/2000/svg" xmlns:xlink="http://www.w3.org/1999/xlink" x="0px" y="0px"
	 viewBox="0 0 905 475.2399902" style="enable-background:new 0 0 905 475.2399902;" xml:space="preserve">
<style type="text/css">
	.st0{fill:#D3E1EA;}
	.st1{fill:#FDC5B6;}
	.st2{fill:#453C57;}
	.st3{fill:#F8D6D5;}
	.st4{fill:#EDF5F8;}
	.st5{fill:#FFFFFF;}
	.st6{fill:#AFC4D5;}
	.st7{fill:#C9D9E6;}
	.st8{fill:#272264;}
	.st9{fill:#FDFFFF;}
	.st10{fill:#FC4944;}
	.st11{fill:#FF8302;}
	.st12{fill:#F9B700;}
	.st13{fill:#FFCFC6;}
	.st14{fill:#01D26C;}
	.st15{fill:#FF4647;}
	.st16{fill:#FFB200;}
	.st17{fill:#80284E;}
	.st18{fill:#1A005B;}
	.st19{fill:#F5D4C1;}
	.st20{fill:#726B94;}
	.st21{fill:#835E92;}
	.st22{fill:#7C618A;}
	.st23{fill:#473D56;}
	.st24{fill:#FF7C24;}
	.st25{fill:#FF2459;}
	.st26{fill:#807498;}
	.st27{fill:#EFEFEF;}
	.st28{fill:#D8D84E;}
	.st29{fill:#40304D;}
	.st30{fill:#F42535;}
	.st31{fill:#6A597C;}
	.st32{fill:none;stroke:#40304D;stroke-width:3;stroke-miterlimit:10;}
	.st33{fill:#FDD2CB;}
	.st34{fill:#02D06B;}
	.st35{fill:#7E2C52;}
	.st36{fill:#251D66;}
	.st37{fill:#5F1435;}
	.st38{fill:#FDB709;}
	.st39{fill:#F7D1C4;}
	.st40{fill:#FC4446;}
	.st41{fill:#E5557B;}
	.st42{fill:#812B52;}
	.st43{fill:#281F60;}
	.st44{fill:#37B746;}
	.st45{fill:#2E82CE;}
</style>
<rect x="53" y="68.6200027" class="st0" width="229" height="355"/>
<path class="st24" d="M153.6124115,313.0695496l21.9798431,16.6865845c1.334549,1.0131836,3.2696381,0.2962036,3.6218719-1.3419189
	l5.5847626-25.9729309c1.0608978-4.9339294-1.8929443-9.8435364-6.7490387-11.2175293l-1.0956268-0.3099976
	c-2.6347198-0.7454529-5.4166565,0.559845-6.5272369,3.0626526l-2.4904022,5.6123962
	c-0.3999481,0.9013062-1.4017944,1.3713989-2.3506165,1.1029358l-7.5456696-2.1349792
	c-2.9399872-0.8318481-6.0442657,0.6246948-7.2835236,3.417511h-0.0000153
	C149.0203705,305.8874207,150.2026215,310.4809265,153.6124115,313.0695496z"/>
<rect x="301" y="237.6199951" class="st0" width="228" height="186"/>
<rect x="547" y="120.6200027" class="st0" width="292" height="303"/>
<rect x="67" y="81.6200027" class="st5" width="57" height="61"/>
<rect x="141" y="81.6200027" class="st5" width="57" height="61"/>
<rect x="214" y="81.6200027" class="st5" width="57" height="61"/>
<rect x="94" y="76.6200027" class="st0" width="3" height="70"/>
<rect x="168" y="77.6200027" class="st0" width="3" height="70"/>
<rect x="242" y="77.6200027" class="st0" width="3" height="70"/>
<rect x="94.5" y="77.1200027" transform="matrix(4.486906e-11 -1 1 4.486906e-11 -16.1200008 208.1199951)" class="st0" width="3" height="70"/>
<rect x="169.5" y="77.1200027" transform="matrix(4.486906e-11 -1 1 4.486906e-11 58.8800011 283.1199951)" class="st0" width="3" height="70"/>
<rect x="241.5" y="77.1200027" transform="matrix(4.486906e-11 -1 1 4.486906e-11 130.8800049 355.1199951)" class="st0" width="3" height="70"/>
<path class="st33" d="M144.8294525,325.4464417l-0.3973541,1.1806946c-0.2649536,0.8214417-1.0055847,1.4035645-1.875946,1.4630127
	c-1.0130615,0.0700378-2.4099121,0.1697388-3.6192322,0.257019l-1.7260437-3.1135254
	c0.7749176-0.9327698,1.9575195-1.4395752,3.1743927-1.3482056l3.5556183,0.2469482
	C144.5917053,324.1719055,145.0310822,324.8201904,144.8294525,325.4464417z"/>
<path class="st0" d="M361.0088501,53.6199989h-64.5788574c1.8257141-1.9028625,4.3919983-3.0857124,7.2359924-3.0857124
	c1.568573,0,3.0548706,0.3600044,4.3765869,1.002861c1.6559753-3.9394455,5.1376953-6.9171486,9.3857117-7.8685951
	c2.4788513-4.7828522,7.4776917-8.0485535,13.2377014-8.0485535c5.6931458,0,10.635437,3.1834297,13.1502991,7.8685646
	c0.5708618-0.1028633,1.1622925-0.1542778,1.7640076-0.1542778c3.8776855,0,7.2462769,2.1394157,9,5.3074341
	c0.4114075-0.1080132,0.8434143-0.1645775,1.2857056-0.1645775
	C358.7048645,48.4771423,361.0088501,50.7811317,361.0088501,53.6199989z"/>
<path class="st0" d="M803,68.6200027h-72.5700073c2.0516357-2.1383286,4.9354858-3.4675522,8.1314087-3.4675522
	c1.7626343,0,3.4328613,0.4045563,4.9181519,1.1269608c1.8609009-4.4269218,5.7734375-7.7730942,10.5471191-8.8422737
	c2.7855835-5.3746948,8.4030151-9.0445023,14.8757935-9.0445023c6.397583,0,11.9514771,3.5773544,14.7775269,8.8422394
	c0.6414795-0.1155891,1.3060913-0.1733704,1.9822388-0.1733704c4.3575439,0,8.1430054,2.4041519,10.1137085,5.9641876
	c0.4623413-0.121376,0.9478149-0.1849403,1.4448242-0.1849403C800.4108887,62.8407516,803,65.4298477,803,68.6200027z"/>
<path class="st34" d="M112.3099976,393.7600098l-8.1699829,23.9699707c-0.1900024,0.5499268-0.6500244,0.960083-1.210022,1.0799561
	c-0.1199951,0.0400391-0.2399902,0.0500488-0.3699951,0.0500488h-1.1500244c-0.5499878,0-1.0299683-0.2600098-1.3299561-0.6699219
	c-0.25-0.3200684-0.3699951-0.7401123-0.3300171-1.1800537l2.1599731-20.2200928
	c0.0300293-0.2700195-0.0099487-0.5499268-0.1099854-0.7999268l-1.0299683-2.5799561
	c-0.7300415-1.8200684-3.460022-1.1101074-3.210022,0.8299561L97.8900146,396.75
	c0.039978,0.3399658-0.0200195,0.6900635-0.1799927,0.9899902l-10.6799927,20.2299805
	c-0.1500244,0.2900391-0.3800049,0.5100098-0.6500244,0.6700439c-0.2399902,0.1398926-0.5300293,0.2199707-0.8300171,0.2199707
	c-0.6199951,0-1.1400146-0.3300781-1.4199829-0.8200684c-0.2200317-0.3498535-0.2999878-0.7799072-0.2000122-1.2199707
	l3.9299927-17.3798828c0.0599976-0.3100586,0.0499878-0.6201172-0.0599976-0.920166l-6.9899902-20.0299072
	c-1.1400146-3.2900391-1.4799805-6.7999268-0.9899902-10.2399902l0.2399902-1.6199951
	c0.1199951-0.8200684,0.8200073-1.4300537,1.6500244-1.4300537h25.0999756c0.8200073,0,1.5300293,0.5999756,1.6500244,1.4200439
	l3.9199829,26.3499756C112.4199829,393.2399902,112.4000244,393.5100098,112.3099976,393.7600098z"/>
<path class="st35" d="M139,324.6199951v4c0,0.2550659-12.1811829,4.8276062-16.5021515,6.4415894
	c-0.9417496,0.3517456-1.931221,0.5354919-2.9364929,0.5420837c-2.2682343,0.0148315-6.4113312,0.096283-6.4113312,0.096283
	c-0.3000488-0.1400146-0.6400146,0.0799561-0.6400146,0.4100342v0.6500244c0,0.1600342,0.0800171,0.3099365,0.2199707,0.3900146
	L126.8099976,345.25c0.4400024,0.2600098,0.7299805,0.7099609,0.7700195,1.2099609
	c0.0199585,0.1300049,0.0100098,0.25-0.0100098,0.3800049l-0.3800049,2.4499512
	c-0.0499878,0.3100586-0.1900024,0.5900879-0.3900146,0.8100586c-0.3499756,0.4100342-0.8999634,0.6300049-1.4799805,0.5300293
	l-12.3099976-2.0700684c-0.2700195-0.0400391-0.5100098,0.1600342-0.5200195,0.4300537L112,362.3299561
	c-0.0499878,1.4300537-0.539978,2.7700195-1.3599854,3.8699951c-0.8099976,1.0999756-1.960022,1.9500732-3.3099976,2.4100342
	C100.6300049,370.8800049,93.4899902,371.5,86.5,370.4100342l-9.4000244-1.4699707
	C74.7399902,368.5699463,73,366.539917,73,364.1500244v-30.2399902c0-4.2593689,1.2648621-8.4227905,3.634201-11.9623718
	L79.25,318.039917c0.4642639-0.693573,1.2438812-1.1098633,2.0784912-1.1098633h22.5615234
	c1.039978,0,2.0299683,0.369873,2.8099976,1.0499268L119,325.6199951c1.0874786,0.9562683,6.2882996,0.9984436,9.4060669,0.1759949
	c0.3999786-0.1054993,0.7981262-0.199707,1.2091064-0.2467957C131.7919769,325.2997742,139,324.4841309,139,324.6199951z"/>
<path class="st33" d="M86.0178833,316.0203552l0.5967636-3.3153381c0.0895157-0.4973145,0.0096741-1.0102844-0.2267532-1.4568481
	l-3.0855331-5.8282471c-0.8974533-1.6951904-1.0729446-3.6807861-0.4867172-5.5071106l0.0000076-0.0000305
	c1.5267792-4.7565002,6.0596008-7.8931274,11.0490036-7.6457214l4.2416611,0.2103271
	c2.154953,0.1068726,3.9968338,1.5873413,4.5645447,3.6689148l1.2815704,4.6991272
	c0.6296234,2.3085938,0.1118698,4.7791138-1.3916855,6.6406555l-2.4870453,3.0791931
	c-0.4865875,0.6024475-0.6305923,1.4122009-0.3815613,2.1454468l1.013237,2.983429
	c0.4974747,1.4647827-0.5916214,2.9848633-2.138588,2.9848633H88.240715
	C86.8332138,318.6790161,85.7685394,317.4055786,86.0178833,316.0203552z"/>
<path class="st36" d="M92.6300049,421.9100342c0,0.1398926-0.0300293,0.2800293-0.0900269,0.4099121
	c-0.2399902,0.5200195-0.7599487,0.8500977-1.3299561,0.8500977h-3.5c-1.0800171,0-2.1400146-0.210083-3.1400146-0.6101074
	l-1.0900269-0.4399414c-0.5700073-0.2399902-0.8299561-0.9000244-0.5700073-1.4499512l1.2200317-2.630127
	c0.2799683,0.4899902,0.7999878,0.8200684,1.4199829,0.8200684c0.2999878,0,0.5900269-0.0800781,0.8300171-0.2199707
	l0.039978,0.0999756c0.3699951,0.9100342,1.2000122,1.5599365,2.1700439,1.7099609l3.2199707,0.5
	C92.2999878,421.0299072,92.6300049,421.4499512,92.6300049,421.9100342z"/>
<path class="st36" d="M110.9299927,422.7099609l-0.039978,0.0599365c-0.1700439,0.25-0.4500122,0.420166-0.7600098,0.4400635
	l-4.5100098,0.3599854c-0.0800171,0-0.1699829,0-0.25-0.0100098l-4.4799805-0.75
	c-0.1600342-0.0300293-0.3200073-0.0899658-0.4500122-0.1899414l-1-0.7800293
	c-0.3300171-0.25-0.4700317-0.6799316-0.3499756-1.0799561l0.6299438-2.0600586
	c0.0700073-0.2099609,0.2000122-0.3900146,0.3600464-0.5098877c0.2999878,0.4099121,0.7799683,0.6699219,1.3299561,0.6699219
	h1.1500244c0.1300049,0,0.25-0.0100098,0.3699951-0.0500488c0.5300293,1.1600342,1.7200317,1.880127,2.9899902,1.7900391
	l1.7000122-0.1099854c0.1099854-0.0100098,0.2200317,0,0.3300171,0.0299072l2.4099731,0.670166
	C111.0200195,421.3699951,111.3099976,422.1400146,110.9299927,422.7099609z"/>
<path class="st36" d="M82.3033676,316.9262085l11.4606781,13.2134705c2.6623459,3.2635193,3.3537674-1.6851196,5.4996109-5.3092041
	l4.6801605-7.9042664H82.3033676z"/>
<path class="st33" d="M134.2199707,349.9100342c-1.289978,0.869873-3.1399536,1.6999512-3.3899536,1.6699219
	c-0.8099976-0.1099854-2.5200195-0.8100586-4.0300293-1.4799805c0.2000122-0.2199707,0.3400269-0.5,0.3900146-0.8100586
	l0.3800049-2.4499512c0.0200195-0.1300049,0.0299683-0.25,0.0100098-0.3800049c0.0599976,0,0.1300049,0,0.1900024,0.0100098
	l5.0299683,0.4899902c0.0499878,0,0.0900269,0.0200195,0.1300049,0.0500488l1.3500366,1.0198975
	C134.9099731,348.5100098,134.8800049,349.4699707,134.2199707,349.9100342z"/>
<path class="st36" d="M86.3483124,309.5104675c-0.8463669-0.14505-3.287735-0.6785583-5.2584229-2.8314514
	c-1.2483139-1.363739-1.7843933-2.805481-2.0224762-3.6404419c-0.10392-1.2731628-0.1756668-4.5254822,1.8876419-7.5505676
	c1.723877-2.5274353,4.0151367-3.638916,4.9887619-4.0449524c1.7107086-0.6461487,3.7929459-1.2902832,6.2022476-1.7528076
	c2.6053162-0.5001831,4.9413681-0.6628723,6.8764038-0.6741638c0.792305-0.0181274,3.3774719,0.0235291,5.6629257,1.8876343
	c1.2681427,1.0343628,1.9474869,2.224823,2.2921371,2.9663086c-1.3860626,0.8262939-2.77211,1.6525879-4.158165,2.4789124
	c-1.6775436,1.000061-3.654808,1.3947754-5.581398,1.0745239c-1.9665375-0.3269348-4.2417221-0.4356384-6.709877-0.047821
	c-1.9653473,0.3088074-3.3896179,0.5509949-4.44944,1.617981C84.0556335,301.030304,84.251297,305.175415,86.3483124,309.5104675z"
	/>
<polygon class="st37" points="87.831459,336.3419189 93.6292114,347.2632751 112.4568329,349.8233032 112.5056152,349.0160828 
	95.2471924,346.4542847 "/>
<path class="st24" d="M144.2916718,328.6199951h-2.5833435c-0.3911896,0-0.7083282-0.3171387-0.7083282-0.7083435v-6.583313
	c0-0.3912048,0.3171387-0.7083435,0.7083282-0.7083435h0.4375c1.5763245,0,2.8541718,1.2778625,2.8541718,2.8541565v4.4375
	C145,328.3028564,144.6828613,328.6199951,144.2916718,328.6199951z"/>
<path class="st24" d="M147.0314636,317.2916565c0.1591339,0.2487488,0.0568237,0.5808411-0.2146912,0.6969299l-5.0744171,2.1693115
	l-0.5389099-0.8423767l4.0965729-3.6978149c0.2191925-0.1978455,0.5635834-0.1515503,0.7227173,0.0971985L147.0314636,317.2916565z"
	/>
<rect x="215" y="159.6199951" class="st5" width="57" height="61"/>
<rect x="243" y="155.6199951" class="st0" width="3" height="70"/>
<rect x="242.5" y="155.1199951" transform="matrix(4.486906e-11 -1 1 4.486906e-11 53.8800011 434.1199951)" class="st0" width="3" height="70"/>
<rect x="141" y="158.6199951" class="st5" width="57" height="61"/>
<rect x="169" y="154.6199951" class="st0" width="3" height="70"/>
<rect x="168.5" y="154.1199951" transform="matrix(4.486906e-11 -1 1 4.486906e-11 -19.1200008 359.1199951)" class="st0" width="3" height="70"/>
<rect x="66" y="162.6199951" class="st5" width="57" height="61"/>
<rect x="94" y="158.6199951" class="st0" width="3" height="70"/>
<rect x="93.5" y="158.1199951" transform="matrix(4.486906e-11 -1 1 4.486906e-11 -98.1200027 288.1199951)" class="st0" width="3" height="70"/>
<path class="st38" d="M747.9039917,328.8541565l-1.0197144,2.6767883c-0.0181885,0.0476685-0.0241699,0.0991516-0.017395,0.1497498
	l0.6557617,4.918335c0.0053101,0.0398865,0.0184326,0.0783386,0.0385742,0.1131897l1.7819824,3.0779419
	c0.0270386,0.0467224,0.0413208,0.099762,0.0413208,0.1537476v24.8597412v1.9402466
	c0,1.5345459,1.2439575,2.7785645,2.7785034,2.7785645h22.8045654c0.008728,0,0.0175171,0.0005188,0.0262451,0.0014648
	c1.1951904,0.1309509,2.3543701-0.45047,2.9420166-1.4740906c0.5515747-0.9608154,0.5154419-2.1648254-0.0930176-3.1139526
	c-0.5579224-7.8053284-1.6100464-16.7634888-2.1679077-24.5688171l1.3156738-1.7875061
	c0.0213623-0.0435791,0.0321045-0.0916138,0.031311-0.1401367l-1.0099487-8.1840515
	c-0.0149536-0.9276428-0.0180664-2.2089233-0.6741333-2.8649597l-0.5055542-0.6741333
	c-0.7408447-0.7408142-0.7706299-0.7927856-1.8147583-0.7063293l-23.9705811,1.9848328
	C748.5322876,328.037384,748.0878296,328.3716125,747.9039917,328.8541565z"/>
<path class="st39" d="M768.7457275,326.7744751l-1.9523926-4.2953186c-0.6694946-1.4728699-0.6182861-3.1728821,0.1387329-4.6027527
	l1.8331909-3.462677l3.3410645-7.1595154c0.1132202-0.2425537,0.0285645-0.5314331-0.1976318-0.6745605l-7.614502-4.8173523
	c-0.1542358-0.0975647-0.3477173-0.1092529-0.5125122-0.0310364l-9.288269,4.407959
	c-0.227356,0.1079102-0.3479614,0.3603516-0.2891235,0.6050415c-0.0333862,0.6048584-0.0764771,1.5111694-0.1010132,2.6136169
	c-0.0576172,2.5892944-0.0864868,3.8839417,0.1685181,4.8873291c0.2298584,0.9042053,0.8343506,2.4907532,2.7319946,4.1390076
	c0.0794067,0.3303528,0.1513062,0.756897,0.1598511,1.2563171c0.0072021,0.4220886-0.0316772,0.8450012-0.1167603,1.2610779
	l-1.1326294,5.5372925c-0.0657959,0.3218079,0.1727905,0.6257935,0.5010376,0.6382446l11.8259277,0.4490967
	C768.6366577,327.5412292,768.9094849,327.1347046,768.7457275,326.7744751z"/>
<path class="st40" d="M755.4799805,311.0245056c-0.0181274,0.0115662-0.039856,0.0198059-0.0612793,0.0216064
	c-0.468689,0.0389709-0.7855225-0.072052-0.9783325-0.1714783c-0.9487915-0.4891663-1.6853027-2.0223389-1.0075073-3.7075195
	c0.0041504-0.0103455,0.6229858-1.02771,1.0394897-1.7093811c0.3341675-0.5469055,0.7265625-1.0572205,1.1887817-1.5012207
	c1.0446167-1.003418,2.3135376-1.7531128,3.7086182-2.182373l0.9244385-0.2844543
	c1.895874-0.5833435,3.9233398-0.5833435,5.8192749,0l0.2622681,0.080719
	c0.7606201,0.2340393,1.5872803,0.0922241,2.2263794-0.3819885l0.4411621-0.3273315
	c2.2355957-1.6586609,5.2945557-1.6543884,7.5254517,0.010498l3.4458008,2.5714722
	c2.6034546,1.9428711,4.269165,4.8916626,4.5891724,8.1243591l0.9068604,9.1586609
	c0.1190796,1.2030029-1.1409912,2.0605164-2.2163696,1.5083008l-5.255127-2.6985779
	c-2.8422241-1.4595337-4.4834595-4.526825-4.1206055-7.7012634l0.4749146-4.1558228
	c0.1499634-1.3119507-0.781311-2.5011902-2.0909424-2.6701965c-0.418335-0.0539551-0.6641846,0.3417358-0.5726318,0.6676941
	c0.3455811,1.2304688,0.3515015,2.5317993,0.2133789,3.8024292l-0.3787231,3.4841003
	c-0.0490723,0.4512634-0.211792,0.8827515-0.4730225,1.2539673c-0.8627319,1.2220764-2.4814453,1.9009705-2.8317871,1.5452576
	c-0.041748-0.0423889-0.0854492-0.0892944-0.1155396-0.1556396c-0.2282715-0.5027466,0.4138184-1.0155334,0.838501-2.0359802
	c0.2042847-0.4907837,0.4736328-1.1379395,0.288208-1.8530579c-0.0324097-0.1250305-0.2202148-0.8492432-0.8443604-1.3027039
	c-0.0030518-0.0021667-0.0055542-0.0039673-0.0072021-0.005188l-5.3839722-3.2423706
	c-0.5016479-0.4316711-2.4363403-0.3357239-2.8649902,0.1685181l-3.7850342,3.1741638
	c-0.0727539,0.0855713-0.1651001,0.1508484-0.2700195,0.190918c-0.0921021,0.0351563-0.2248535,0.1235962-0.3266602,0.1740112
	C755.6593018,310.9386902,755.5771484,310.962677,755.4799805,311.0245056z"/>
<path class="st42" d="M774.6637573,368.5112915v3.7076111l-1.8353271,44.1982117
	c-0.0100708,0.2544861-0.225769,0.4533386-0.4802856,0.4415283l-0.4667969-0.0202026l-2.4049072-0.1044922l-0.0623779-0.0033875
	c-0.2763672-0.0117798-0.5021973-0.2241211-0.5308838-0.4988403l-4.6682129-44.0128174l-1.3296509,44.2184143
	c-0.0101318,0.3303223-0.2966309,0.5864868-0.6269531,0.5578308l-0.5426636-0.0471802l-1.7762451-0.1550598
	c-0.2157593-0.0185242-0.4129639-0.0977478-0.576416-0.2241516c-0.2510986-0.1853333-0.4196167-0.4769287-0.4448853-0.8088989
	l-3.2980957-43.5409546v-3.7076111H774.6637573z"/>
<path class="st43" d="M761.7156982,416.9479675l-0.807251,4.1542358c-0.0421143,0.2140198-0.1415405,0.4111938-0.289856,0.5729675
	l-1.2774048,1.3937378c-0.2224731,0.2443542-0.5393066,0.3825684-0.8696289,0.3825684h-0.6859131
	c-0.2460327,0-0.4786377-0.0758362-0.6724243-0.2106628c-0.1921387-0.1331482-0.345459-0.3252563-0.4314575-0.5561523
	c-0.1381836-0.3640137-0.0859375-0.7718506,0.1381836-1.0903625l1.8774414-2.6829529
	c0.0825806-0.1180115,0.1432495-0.2511292,0.1769409-0.3910217l0.4887085-1.9515686
	c0.1634521,0.1264038,0.3606567,0.2056274,0.576416,0.2241516L761.7156982,416.9479675z"/>
<path class="st43" d="M771.8813477,416.8384399l-0.8612061,4.43396c-0.0421143,0.2123413-0.1415405,0.4095154-0.288208,0.5696106
	l-1.3734741,1.49823c-0.1634521,0.1786194-0.3943481,0.2797546-0.635376,0.2797546h-0.9049683
	c-0.4432373,0-0.8409424-0.2746887-0.9976807-0.690979l-0.1365356-0.3656921
	c-0.0690918-0.1820374-0.0421143-0.3876343,0.0691528-0.5477295l1.9902954-2.8413696
	c0.1264038-0.1803284,0.2173462-0.3825684,0.2713013-0.5949097l0.461792-1.8453674L771.8813477,416.8384399z"/>
<path class="st39" d="M718.4873047,313.2896118l-1.8314819-2.8780212c-0.0888062-0.1395264-0.2023926-0.2615967-0.3352051-0.3601379
	l-4.1002808-3.0421448c-0.609375-0.4520874-1.3521729-0.6882935-2.1107178-0.6689148
	c-0.7466431,0.0190735-1.5858154,0.0608826-1.6774902,0.1525269c-0.0449219,0.0449524-0.0779419,0.3058777-0.1021118,0.6643372
	c-0.1112671,1.6502686,0.4967041,3.2693176,1.6662598,4.4389038l1.2774658,1.2774048
	c0.1266479,0.126709,0.2772827,0.2269592,0.4430542,0.2949829l5.1158447,2.0987854
	c0.6729736,0.276123,1.4438477-0.02948,1.744873-0.6917419l0,0
	C718.7667847,314.1592407,718.7328491,313.6754456,718.4873047,313.2896118z"/>
<path class="st39" d="M803.2923584,354.0414734c0.7243652,0.3031006,1.8831787,0.8348083,2.1097412,0.9390259
	c0.0267334,0.0123291,0.0516357,0.0255737,0.0769043,0.0407104l2.1016846,1.2610168
	c0.5060425,0.3036194,0.8867798,0.7782593,1.0734253,1.3381042l0.3477783,1.043457
	c0.0665283,0.1995239,0.052063,0.4142151-0.0350342,0.5999451c-0.0617065,0.1315002-0.0961914,0.2740173-0.074707,0.4176636l0,0
	c0.0412598,0.2762146-0.1672974,0.5308228-0.4465332,0.5358582c-0.2849731,0.005127-0.6082153-0.0510864-0.7825928-0.1009216
	l-1.1600342-0.3314209c-0.684021-0.1954346-1.2727051-0.6348267-1.6546631-1.2350159l-0.7420044-1.1660461
	c-0.0196533-0.0308838-0.0413208-0.0603943-0.0649414-0.0883789l-1.6794434-1.9932861
	c-0.2468872-0.2929993-0.2523193-0.719635-0.0129395-1.0188293l0,0
	C802.5747681,354.0011292,802.9589233,353.901947,803.2923584,354.0414734z"/>
<path class="st38" d="M750.0585938,330.4239197l-15.7871704-10.4128113
	c-0.0362549-0.0239258-0.0741577-0.0452881-0.1134644-0.0638733l-15.2280273-7.2133179
	c-0.4153442-0.1967163-0.9120483-0.0591125-1.1669922,0.3232422l-1.3988647,2.0982666
	c-0.2848511,0.4273071-0.1676025,1.0048523,0.2614136,1.2872009l12.5356445,8.2513123l20.8974609,12.9766846"/>
<path class="st38" d="M773.3599243,329.0290527l6.0280151,2.6208801c0.4429932,0.1925964,0.8526611,0.4542542,1.2136841,0.775177
	l10.0722656,8.953125l12.3735962,11.7471008c0.5076904,0.4819336,0.4989014,1.2936707-0.019043,1.7645264l0,0
	c-0.5322876,0.4839172-1.3172607,0.5660095-1.9381714,0.2026978l-14.7089844-8.6063538
	c-0.0593872-0.034729-0.1168213-0.0726318-0.1720581-0.1135254l-12.6663818-9.3764343
	c-0.1451416-0.1074219-0.2397461-0.2697754-0.2617188-0.4489746l-0.8369141-6.8346558
	C772.3823853,329.2073059,772.8930664,328.8260803,773.3599243,329.0290527z"/>
<path class="st43" d="M752.3692017,325.5406494l-3.5196533,2.1331177c-0.3983154,0.241394-0.635498,0.678772-0.6205444,1.1442566
	l1.1555176,35.9856262l28.9868164,2.6964722c-0.0073853-2.2095337-0.1054077-3.9413147-0.1685181-4.8873291
	c-0.560791-8.4076843-3.3682251-29.760498-2.8649902-31.6832886c0.003479-0.013092,0.0247192-0.0932312,0.0499268-0.2026978
	c0.0907593-0.3943787,0.2497559-1.2639771,0.1185913-2.3252258c-0.0445557-0.3608398-0.1171875-0.6990356-0.2077026-1.0133667
	c-0.2622681-0.9109497-1.0459595-1.5757751-1.9835815-1.7154236c-2.1907349-0.3262939-4.3814697-0.6525574-6.5721436-0.9788513
	h-11.3430786C754.3312378,324.6939392,753.2830811,324.9867859,752.3692017,325.5406494z"/>
<polygon class="st43" points="767.6397095,301.6237793 771.7987671,305.6502686 772.156311,305.0081787 768.5967407,301.2685242 "/>
<rect x="565" y="130.6199951" class="st5" width="57" height="61"/>
<rect x="593" y="126.6200027" class="st0" width="3" height="70"/>
<rect x="592.5" y="126.1200027" transform="matrix(4.486906e-11 -1 1 4.486906e-11 432.8800049 755.1199951)" class="st0" width="3" height="70"/>
<rect x="633" y="130.6199951" class="st5" width="57" height="61"/>
<rect x="661" y="126.6200027" class="st0" width="3" height="70"/>
<rect x="660.5" y="126.1200027" transform="matrix(4.486906e-11 -1 1 4.486906e-11 500.8800049 823.1199951)" class="st0" width="3" height="70"/>
<rect x="701" y="130.6199951" class="st5" width="57" height="61"/>
<rect x="729" y="126.6200027" class="st0" width="3" height="70"/>
<rect x="728.5" y="126.1200027" transform="matrix(4.486906e-11 -1 1 4.486906e-11 568.8800049 891.1199951)" class="st0" width="3" height="70"/>
<rect x="769" y="130.6199951" class="st5" width="57" height="61"/>
<rect x="797" y="126.6200027" class="st0" width="3" height="70"/>
<rect x="796.5" y="126.1200027" transform="matrix(4.486906e-11 -1 1 4.486906e-11 636.8800049 959.1199951)" class="st0" width="3" height="70"/>
<path class="st44" d="M708.0118408,314.822998l2.9763184,1.7183533c0.6129761,0.3539124,1.3967896,0.1438904,1.7507324-0.4690857
	l5.7183838-9.9045105c0.3538818-0.6130066,0.1438599-1.3968506-0.4691162-1.7507629l0,0
	c-2.2567749-1.3029175-5.1424561-0.5296936-6.4454346,1.7270508l-4,6.9282227
	C707.1888428,313.6852417,707.3988647,314.4690857,708.0118408,314.822998z"/>
<path class="st44" d="M714.635437,302.5009766l-7.2003174-4.5970764c-0.3513794-0.2243652-0.4342651-0.7020264-0.1790161-1.0316772
	l1.2590332-1.6260681c0.255249-0.3296509,0.7384644-0.3689575,1.0436401-0.0848999l6.2532959,5.8201294
	c0.2684326,0.2498169,0.302063,0.6631165,0.0775757,0.953064l-0.3120728,0.4030151
	C715.3530884,302.6274109,714.944519,302.6983032,714.635437,302.5009766z"/>
<rect x="459" y="250.6199951" class="st5" width="57" height="61"/>
<rect x="487" y="246.6199951" class="st0" width="3" height="70"/>
<rect x="486.5" y="246.1199951" transform="matrix(4.486906e-11 -1 1 4.486906e-11 206.8800049 769.1199951)" class="st0" width="3" height="70"/>
<rect x="329" y="282.6199951" class="st5" width="79" height="141"/>
<rect x="329" y="354.6199951" class="st0" width="13" height="4"/>
<path class="st44" d="M659.6711426,275.3540039l1.4667969,34.1047363c0.0890503,2.0707397,2.2182617,3.2111206,3.9852295,2.1344299
	l28.0152588-17.0710754c5.3219604-3.2429199,7.5650635-10.098175,5.125061-15.6630554l-0.5504761-1.2555542
	c-1.3238525-3.0192566-4.6361084-4.4248047-7.7714844-3.2977905l-7.0310059,2.5272217
	c-1.1291504,0.4058533-2.3219604-0.1003113-2.7987061-1.1876221l-3.7913208-8.6470337
	c-1.4772339-3.3691101-5.1732788-4.9375-8.6719971-3.6799011l0,0
	C662.7462769,265.0804138,659.4436035,270.0632324,659.6711426,275.3540039z"/>
<path class="st45" d="M792.1875,423.6199951h-3.375c-0.4487305,0-0.8125-0.3637695-0.8125-0.8125v-5.1041565
	c0-2.2551575,1.828186-4.0833435,4.083313-4.0833435h0.104187c0.4487305,0,0.8125,0.3637695,0.8125,0.8125v8.375
	C793,423.2562256,792.6362305,423.6199951,792.1875,423.6199951z"/>
<path class="st45" d="M789.9743652,413.6170349l-5.6380615-0.7977295c-0.3218384-0.0455322-0.5325928-0.3606567-0.4517822-0.6754456
	l0.4428101-1.7256165c0.0808105-0.3147888,0.4172974-0.489502,0.7212524-0.3744202l5.3255005,2.0158997
	c0.2598267,0.0983582,0.4041748,0.3763733,0.335083,0.6455078l-0.130188,0.5074463
	C790.5098877,413.4818115,790.2495117,413.6559753,789.9743652,413.6170349z"/>
<path class="st45" d="M464.2217407,349.6304016l22.7385254,25.4606323c1.3806152,1.5458984,3.7505493,1.0795593,4.4357605-0.8728333
	l10.8641968-30.9555664c2.0638123-5.8804932-0.5429688-12.6058655-5.9560242-15.3663025l-1.221283-0.6228027
	c-2.9369202-1.4977112-6.3902283-0.4871521-8.102478,2.3710327l-3.8395996,6.4092712
	c-0.6166077,1.0292969-1.8602295,1.393219-2.9178772,0.8538513l-8.4111328-4.2893066
	c-3.2771912-1.6712341-7.1306458-0.5435791-9.0412903,2.645752v0.0000305
	C460.0934448,339.7329102,460.6942444,345.6806335,464.2217407,349.6304016z"/>
</svg>
