<?xml version="1.0" encoding="utf-8"?>
<!-- Generator: Adobe Illustrator 22.0.1, SVG Export Plug-In . SVG Version: 6.00 Build 0)  -->
<svg version="1.1" id="Слой_1" xmlns="http://www.w3.org/2000/svg" xmlns:xlink="http://www.w3.org/1999/xlink" x="0px" y="0px"
	 viewBox="0 0 430 290" style="enable-background:new 0 0 430 290;" xml:space="preserve">
<style type="text/css">
	.st0{fill:#FFFFFF;stroke:#000000;stroke-miterlimit:10;}
	.st1{fill:#A8A9AD;stroke:#000000;stroke-width:0.5;stroke-miterlimit:10;}
	.st2{fill:#FFFFFF;}
	.st3{fill:#23202B;}
	.st4{fill:none;}
	.st5{fill:#A09FA5;}
	.st6{fill:#A8A9AD;}
	.st7{fill:#FFFFFF;stroke:#000000;stroke-width:0.75;stroke-miterlimit:10;}
	.st8{fill:#23202B;stroke:#212121;stroke-width:0.75;stroke-miterlimit:10;}
	.st9{fill:#FFFFFF;stroke:#212121;stroke-width:0.75;stroke-miterlimit:10;}
	.st10{fill:none;stroke:#000000;stroke-width:0.5;stroke-linecap:round;stroke-miterlimit:10;}
	.st11{fill:none;stroke:#FFFFFF;stroke-width:2;stroke-linecap:round;stroke-miterlimit:10;}
</style>
<path class="st0" d="M56.1,182c2.9-6.5,6-12.5,9.1-16.5c9-11.4,15.2-17.5,20.3-20.4l16.1,8.8c1.3-11.7-12.4-25.5-16-28.3
	c-4-3.1-23.1,3.6-36.9,20.6c-8.3,10.3-14,28.2-20.3,39.4c-7,12.5-22.1,8.1-22.6,13.9c0,0.4,0,0.9,0.1,1.4
	c1.6,7.5,19.7,10.2,24.9,10.3c5,0.1,9.9-9.5,18.3-20c1.6-2.1,3.5-4,5.5-5.9l0.1-0.1c0-0.1,0.1-0.1,0.1-0.2
	C55.3,184,55.7,183,56.1,182z"/>
<path class="st0" d="M99.8,55.1C83.1,48.4,64.6,40.4,56.5,37c-3.3-1.3-9.2-1.2-12.3,2.8c-2.8,3.6-0.3,10.4,1.5,12.5
	c6.3,7.1,26.8,14.3,37.2,24.6c2.4,2.3,13.3,17.3,17.2,21.3l7.7-0.8l16.5-28.3C124.3,69.1,108.8,58.8,99.8,55.1z"/>
<path class="st1" d="M208.6,91.7l-5.9-5.9L180,63l-87,88.8l38.6,25.4c0.1,0,0.1,0.1,0.2,0.1c7.2,4.6,17.1,3.1,23.6-3.5
	c0,0,43.5-47.5,58.3-63C217.5,106.8,212.2,95.3,208.6,91.7z"/>
<g>
	<path class="st2" d="M94.7,175.6c-9-0.6-17.5-5.2-24.4-13.3c-0.4-0.5-0.8-1-1.1-1.5c-10.3-15-1.7-46.8,6.2-58.5
		c14.5-21.2,33.9-33.9,52.1-33.9c8.9,0,16.9,2.9,24,8.8c12.6,10.4,18.2,18,18.7,25.4c0.7,10.5-9,21.2-23.6,37.4l-2,2.2
		c-3.5,3.9-7.4,8.2-11.5,12.9c-3.9,4.5-8,8.3-12.1,11.4c-8.1,6-16.3,9.1-24.3,9.1C96,175.6,95.4,175.6,94.7,175.6z"/>
	<path d="M127.5,69c8.7,0,16.7,2.9,23.7,8.8c12.4,10.3,18,17.7,18.5,25c0.8,10.3-8.8,20.9-23.4,37l-2,2.2
		c-3.5,3.9-7.4,8.2-11.5,12.9c-3.9,4.4-8,8.2-12.1,11.3c-8,6-16.1,9-24,9c-0.6,0-1.2-0.1-1.8-0.1c-9-0.5-17.3-5.1-24.1-13.1
		c-0.4-0.4-0.8-0.9-1.1-1.4c-10.3-14.8-1.8-46.3,6.1-57.9C90.2,81.6,109.5,69,127.5,69 M127.5,68C109,68,89.3,81.1,75,102
		c-8.1,12-16.5,44-6.1,59.1c0.4,0.5,0.8,1,1.2,1.5c7,8.1,15.5,12.8,24.8,13.4c0.6,0.1,1.3,0.1,1.9,0.1c7.8,0,16.2-2.9,24.6-9.2
		c4.1-3.1,8.1-6.9,12.2-11.5c4.8-5.5,9.3-10.5,13.4-15c26.3-29.1,34.6-38.8,4.8-63.5C144.4,70.8,136.1,68,127.5,68L127.5,68z"/>
</g>
<path class="st3" d="M92.6,82.8c-3.6,2.9-6.9,7.1-6.3,6.5c0,0,8.4,11.2,10.9,13.6c4.2,4,28,16.4,32.2,12.5
	c1.5-1.4-1.2-11.7-2.3-13.3c-1.9-2.6-15.1-7.2-19.9-10.9c-5.5-4.2-9.3-11.9-9.3-11.9S95.9,80.3,92.6,82.8z"/>
<path class="st4" d="M80.1,137.8"/>
<path class="st4" d="M130,73.6"/>
<g>
	<path d="M85.2,129.1c1.8-5,3.7-10,6-14.9c2.3-4.8,5.1-9.5,8.4-13.8s7.2-8.2,11.4-11.5l6.4-4.9c2.1-1.6,4.3-3.3,6.7-4.5l0.1,0.1
		c-2.2,1.6-4.1,3.4-6.1,5.2c-2,1.9-4.1,3.5-6.1,5.3c-4,3.5-8,7-11.4,11.1c-3.3,4.1-6.2,8.6-8.6,13.4c-2.4,4.8-4.5,9.7-6.5,14.7
		L85.2,129.1z"/>
</g>
<path class="st0" d="M70.5,45.5"/>
<g>
	<path class="st2" d="M66.9,46.3c-1.1-0.1-6.9,1.4-8.5,0.5c-2.1-1.2-4.8-3.4-4.6-4.9c0.3-2.1,4.2-1.9,8-1.5c1.6,0.1,2.7,0.5,3.9,1.1
		"/>
	<path d="M65.7,41.5C65.7,41.6,65.7,41.6,65.7,41.5c-1.1-0.3-2.3-0.6-3.6-0.5c-1.2-0.1-2.3-0.2-3.5-0.2c-1.2-0.1-2.4-0.1-3.4,0.2
		c-0.5,0.1-0.9,0.3-1.1,0.7c-0.2,0.4-0.1,0.8,0.2,1.3c0.5,1,1.4,1.8,2.3,2.5c0.4,0.4,0.9,0.7,1.4,1c0.5,0.3,1,0.4,1.6,0.4
		c2.3,0.1,4.6-0.5,7-0.6c0.1,0,0.1,0,0.1,0c0,0.1,0,0.1,0,0.1l0,0c-2.3,0.2-4.6,1-7,1c-0.3,0-0.6,0-0.9-0.1
		c-0.3-0.1-0.7-0.3-0.9-0.4c-0.5-0.3-1-0.6-1.5-1c-1-0.7-1.9-1.5-2.6-2.6c-0.2-0.2-0.3-0.5-0.4-0.9c-0.1-0.3-0.1-0.7,0.1-1.1
		c0.3-0.7,1-1.1,1.6-1.3c1.3-0.4,2.5-0.4,3.7-0.3c1.2,0,2.4,0.2,3.6,0.4C63.6,40.4,64.7,40.8,65.7,41.5
		C65.8,41.5,65.8,41.5,65.7,41.5z"/>
</g>
<path class="st5" d="M49,191.3c1.6-2.1,3.5-4,5.5-5.9l0.2-0.3c0.5-1.1,1-2.1,1.4-3.1c0,0-7,5.3-9,7.5c-3.5,3.9-9.1,13.4-13.7,15.9
	c-3.1,1.7-10.6,2.6-14,1.7c-3.8-1-13.6-7.6-13.6-7.6c0,0.4,0,0.9,0.1,1.4c1.6,7.5,19.7,10.2,24.9,10.3
	C35.8,211.3,40.7,201.7,49,191.3z"/>
<path class="st3" d="M39.5,234.2"/>
<g>
	<path class="st2" d="M85.6,145c-4.4,2.6-9.6,7.4-16.7,16c-1.1,1.4-2.3,2.8-3.5,4.4c-3.1,4.1-6.2,10-9.1,16.5
		c-0.5,1.1-0.9,2.1-1.4,3.1c-0.1,0.1-0.1,0.1-0.1,0.2c-4.5,10.2-8.6,21.2-12.4,28.1c-3,5.5-14.4,9-16.2,12.3
		c-3.8,6.9,3.4,8.7,11.5,8.6c4.7,0,9.7-0.7,13-1.3c2.2-0.4,6.2-4.7,9.7-10.8c3.7-6.3,7.7-12.3,11.6-19.8c5.3-10.1,13.8-17,18.4-18.5
		c3.3-1.1,22.7-7.8,30.9-16.9c0.5-0.5,0.9-1.1,1.3-1.6"/>
	<path d="M113.6,173c-3.2,2.1-6.6,3.9-10.1,5.6s-7.1,3.2-10.7,4.5c-0.9,0.4-1.8,0.7-2.7,1s-1.8,0.7-2.6,1.2
		c-1.6,0.9-3.1,2.1-4.6,3.3c-2.9,2.5-5.5,5.4-7.7,8.5c-1.1,1.6-2.1,3.2-3,4.9c-0.9,1.7-1.7,3.4-2.7,5.1c-1.9,3.3-3.9,6.6-5.9,9.9
		c-0.9,1.7-1.9,3.3-2.9,5c-0.9,1.7-2,3.3-3.1,4.9c-1.1,1.5-2.4,3-3.8,4.4c-0.8,0.7-1.5,1.3-2.5,1.8c-0.3,0.1-0.5,0.2-0.8,0.3
		c-0.2,0-0.5,0.1-0.7,0.1l-1.4,0.2c-3.8,0.6-7.7,1-11.6,1c-1.9,0-3.9-0.1-5.8-0.4c-1.9-0.3-4-0.8-5.5-2.4c-0.7-0.8-1.1-1.9-1.1-3
		c0.1-0.5,0.1-1,0.3-1.5c0-0.2,0.1-0.5,0.2-0.7l0.3-0.7c0.1-0.2,0.1-0.5,0.3-0.7c0.2-0.3,0.3-0.5,0.5-0.7c0.3-0.4,0.7-0.7,1.1-1
		c0.8-0.6,1.7-1.1,2.5-1.6c3.3-2,6.8-3.6,9.7-6.1c0.3-0.4,0.7-0.7,1-1c0.3-0.4,0.7-0.7,0.9-1.1c0.5-0.8,1-1.7,1.4-2.5
		c0.9-1.7,1.7-3.4,2.5-5.2c3.1-7.1,6-14.2,9.1-21.3l0,0c1.7-3.9,3.5-7.7,5.5-11.5c1-1.9,2.1-3.7,3.3-5.5c1.2-1.8,2.6-3.4,3.9-5.1
		c2.7-3.3,5.5-6.6,8.5-9.6c3-3.1,6.2-6,9.9-8.1c-3.6,2.2-6.8,5.1-9.7,8.2c-2.9,3.1-5.7,6.3-8.3,9.7c-1.3,1.7-2.7,3.3-3.8,5.1
		c-1.2,1.8-2.2,3.6-3.2,5.5c-2,3.7-3.7,7.6-5.4,11.5l0,0c-3,7-5.8,14.3-8.9,21.3c-0.8,1.7-1.6,3.5-2.5,5.2c-0.4,0.9-0.8,1.7-1.4,2.6
		c-0.2,0.5-0.6,0.8-0.9,1.2c-0.4,0.3-0.7,0.7-1.1,1c-3,2.5-6.5,4.2-9.8,6.2c-0.9,0.5-1.7,1-2.4,1.6c-0.4,0.3-0.7,0.6-1,0.9
		c-0.3,0.3-0.5,0.7-0.7,1.1l-0.3,0.6c-0.1,0.2-0.1,0.4-0.2,0.6c-0.1,0.4-0.1,0.9-0.2,1.3c0,0.9,0.3,1.7,0.9,2.3
		c1.2,1.2,3.1,1.8,4.9,2.1c1.9,0.3,3.8,0.4,5.7,0.4c3.8,0,7.6-0.3,11.4-0.9l1.4-0.2c0.2,0,0.5,0,0.7-0.1c0.2,0,0.4-0.1,0.6-0.2
		c0.8-0.4,1.5-1,2.2-1.6c1.4-1.3,2.6-2.8,3.7-4.3s2.1-3.1,3.1-4.8s2-3.4,3-5c2-3.3,4-6.6,5.9-9.9c1-1.7,1.9-3.4,2.8-5.1
		s2-3.3,3.1-4.9c2.3-3.1,4.9-6,7.9-8.5c1.5-1.2,3.1-2.3,4.8-3.3c0.9-0.5,1.8-0.9,2.7-1.2c0.9-0.3,1.8-0.6,2.7-0.9
		c3.6-1.3,7.2-2.7,10.7-4.3c3.5-1.6,7-3.3,10.2-5.4s6.3-4.5,8.7-7.5C120.3,168.4,117.2,170.9,113.6,173z"/>
</g>
<path class="st6" d="M124.7,152.8c-2.8,3.3-5.7,7-8.1,9.4c-0.5,0.5-1,0.9-1.4,1.3c-3.5,2.9-11.3,7.4-15.2,9.7
	c-1.4,0.8-3.3,1.9-5.3,3c-4,2.3-8.7,5-11.3,6.9c-2,1.4-6,4.7-7.7,6.6c-3.8,4.3-9.9,14.1-13.4,18.7c-4.4,5.7-14.1,16.7-19.4,21.6
	c-1.2,1-3.1,2.6-5.2,4.3c4.7,0,9.7-0.7,13-1.3c2.2-0.4,6.2-4.7,9.7-10.8c3.7-6.3,7.7-12.3,11.6-19.8c5.3-10.1,13.8-17,18.4-18.5
	c3.3-1.1,22.7-7.8,30.9-16.9c4.1-3.1,8.1-6.9,12.2-11.5c1.9-2.2,3.8-4.4,5.6-6.4C134.2,150.9,129.3,152.1,124.7,152.8z"/>
<path class="st2" d="M208.7,91.9l-5.9-5.9c-1.7,0.9-3.7,2.1-6,3.5c-3.9,3-7,5.7-9.4,7.7c-7,6.1-8.9,8.4-9.7,10.3
	c-0.2,0.4-0.3,1-0.3,1c-1.2,4-0.8,7.2-0.8,7.9c0.3,5.2-5.9,16-12.9,23.4c-4.4,4.7-8.8,7.6-12.1,9.8c-4,2.7-7.6,4.6-10.4,5.9
	c0,0-10.4,6.2-11.4,9.8c-0.7,2.2,0.4,7,2,12c7.2,4.6,17.1,3.1,23.6-3.5c0,0,43.5-47.5,58.3-63C217.5,106.8,212.2,95.3,208.7,91.9z"
	/>
<g>
	<path class="st2" d="M143.3,119.5c-15.4,19.8-42.9,15.9-37,29.4c1.7,4,9.1,5.2,18.4,3.9c4.5-0.6,9.5-1.8,14.4-3.6
		c10.1-3.6,20.2-9.6,26.4-17.5c13.1-16.8,3.5-37.9-2.3-42.5"/>
	<path d="M168.9,97.7c1.4,3.1,2.4,6.4,2.9,9.8c1.1,6.7,0.1,13.9-3.2,20l-0.6,1.2c-0.2,0.4-0.5,0.7-0.7,1.1l-1.5,2.1
		c-1,1.4-2.2,2.7-3.4,3.9c-2.4,2.5-5.1,4.6-8,6.5c-5.7,3.7-12.1,6.5-18.6,8.6c-3.2,1-6.6,1.8-10,2.3s-6.8,0.8-10.3,0.5
		c-1.7-0.1-3.4-0.4-5.1-1c-0.8-0.3-1.7-0.7-2.4-1.2c-0.3-0.3-0.7-0.6-1-0.9s-0.6-0.7-0.8-1.1c-0.4-0.8-0.7-1.6-0.9-2.5
		c-0.2-0.4-0.1-0.9-0.2-1.3c0.1-0.5,0.1-1,0.2-1.4c0.2-0.9,0.8-1.7,1.3-2.4c0.6-0.6,1.3-1.2,2-1.7c1.5-1,3-1.7,4.6-2.4
		c1.6-0.7,3.2-1.3,4.8-1.9c3.2-1.2,6.4-2.5,9.4-4c6.1-2.9,11.8-7,16.1-12.3c-4.2,5.4-9.8,9.6-15.9,12.7c-3.1,1.5-6.2,2.8-9.4,4.1
		s-6.4,2.4-9.2,4.3c-0.7,0.4-1.3,1-1.8,1.6s-1,1.3-1.1,2.1c-0.4,1.5,0.1,3.2,0.8,4.6c0.2,0.3,0.5,0.6,0.7,0.9
		c0.3,0.3,0.6,0.6,0.9,0.8c0.7,0.5,1.4,0.8,2.2,1.1c1.6,0.5,3.2,0.8,4.9,0.9c3.4,0.2,6.8-0.1,10.1-0.6c3.4-0.5,6.7-1.3,9.9-2.3
		c6.4-2,12.7-4.8,18.4-8.5c2.8-1.8,5.5-3.9,7.9-6.3c1.2-1.2,2.3-2.5,3.4-3.8l1.4-2.1c0.2-0.3,0.5-0.6,0.7-1l0.6-1.1
		c3.3-5.9,4.4-12.9,3.4-19.6c-0.4-3.4-1.3-6.7-2.6-9.8c-1.3-3.1-3-6.1-5.6-8.4C165.8,91.4,167.6,94.4,168.9,97.7z"/>
</g>
<path class="st7" d="M191.7,15c19.5,15.2,21.2,45.5,6,64.9s-43.3,22.8-62.7,7.6c-11.7-9.1-29.8-15.2-16.3-32.4
	c5.5-7-0.7-16.7,10.1-29.1C145.1,7.4,172.2-0.2,191.7,15z"/>
<path class="st8" d="M178.6,20.9c12.9,10.9,18.2,32.2,7.8,45.5s-16.7,22.8-33,17c-8.4-3-29.5-17.1-30.7-22.9
	c-1.7-8.3-1.1-25.2,10.4-37C141.6,14.8,157.9,3.6,178.6,20.9z"/>
<path class="st2" d="M170.4,27.5c3.3,2.6,4.9-3.4,4.9-4.9c0-3.4-11-8.3-14.3-9c-3.7-0.8-15,0-18.8,4.9
	C140.6,20.5,154.5,15.1,170.4,27.5z"/>
<g>
	<path class="st2" d="M175.1,83.2c-4-3.1-4.5-9.9-1.1-14.3c1.9-2.4,5.1-3.8,8.6-3.8c2.4,0,4.6,0.7,6.3,2c1.9,1.5,2.9,3.8,2.9,6.4
		c0,2.5-0.9,5.1-2.6,7.2c-2.1,2.6-5.4,4.2-8.7,4.2C178.4,84.9,176.5,84.2,175.1,83.2z"/>
	<path class="st3" d="M182.5,65.4c2.3,0,4.5,0.7,6.1,1.9c4,3.2,3.3,9.2,0.2,13.1c-2,2.5-5.2,4-8.4,4c-2,0-3.8-0.6-5.2-1.7
		c-3.8-3-4.3-9.5-1-13.7C176,66.8,179.2,65.4,182.5,65.4L182.5,65.4 M182.5,64.7c-3.4,0-6.9,1.3-8.9,3.9c-3.4,4.4-3.2,11.4,1.2,14.8
		c1.7,1.3,3.7,1.9,5.7,1.9c3.4,0,6.9-1.6,9-4.3c3.4-4.4,4-10.8-0.4-14.2C187.3,65.4,184.9,64.7,182.5,64.7L182.5,64.7z"/>
</g>
<g>
	<path class="st2" d="M180.3,27.5c1.3,1.1,2.4,4.3,1.3,5.7c-1.1,1.4-3,2.3-4.4,1.2c-2.8-2.3-1.4-4.1-0.3-5.5
		C178,27.5,179,26.4,180.3,27.5z"/>
</g>
<g>
	<path class="st2" d="M184.6,35.4c0.8,0.6,1.8,3.6,1.2,4.4s-2.5,0.4-3.3-0.2s-0.9-1.9,0.2-3.3C183.3,35.5,183.7,34.8,184.6,35.4z"/>
</g>
<g>
	<path class="st2" d="M186,42.3c0.5,0.2,1,1.1,1,1.6c0,1.5-0.9,0.6-1.4,0.4c-0.5-0.1-0.5-0.5-0.3-1C185.5,42.9,185.5,42.2,186,42.3z
		"/>
</g>
<g>
	<path class="st2" d="M178.3,81.1c-1.4-1.1-2.2-2.7-2.3-4.6c-0.2-1.9,0.5-3.8,1.7-5.4c1.6-1.9,3.8-3.1,6.1-3.1
		c1.4,0,2.6,0.5,3.7,1.3c1.4,1.1,2.2,2.7,2.3,4.6c0.2,1.9-0.5,3.8-1.7,5.4c-1.6,1.9-3.8,3.1-6.1,3.1C180.6,82.4,179.3,82,178.3,81.1
		z"/>
	<path class="st3" d="M183.8,68.3c1.3,0,2.5,0.4,3.6,1.2c1.3,1,2.1,2.6,2.2,4.4c0.1,1.8-0.5,3.7-1.7,5.2c-1.5,1.9-3.7,3-5.9,3
		c-1.3,0-2.6-0.4-3.6-1.2c-1.3-1-2.1-2.6-2.2-4.4c-0.1-1.8,0.5-3.7,1.7-5.2C179.4,69.4,181.6,68.3,183.8,68.3L183.8,68.3
		 M183.8,67.8c-2.3,0-4.7,1.1-6.3,3.2c-2.6,3.4-2.4,8,0.6,10.3c1.1,0.9,2.5,1.3,3.9,1.3c2.3,0,4.7-1.1,6.3-3.2
		c2.6-3.4,2.4-8-0.6-10.3C186.6,68.2,185.2,67.8,183.8,67.8L183.8,67.8z"/>
</g>
<circle class="st9" cx="180.2" cy="80.1" r="0.9"/>
<path class="st10" d="M138.5,149.7c-2.2,3.1-5,6.7-8.6,10.4c-3.7,3.8-7.4,6.7-10.5,8.9"/>
<path class="st11" d="M430,116.1c-27.1-4.1-26.5,39.4-96.5,136.4c-15.2,21.1-33.4,42.1-63,31c-40-15,23.5-168.5,2-185
	c-24.9-19.1-50.6,71.1-78.5,85.5c-16.5,8.5-33-9-33-9"/>
<path class="st2" d="M353.8,41l-2.8-6.6c-0.2-0.5-0.7-0.8-1.2-0.9l-7.1-1.3c-1.3-0.3-1.8-1.9-0.8-2.8l5.3-4.8
	c0.4-0.3,0.6-0.9,0.5-1.4l-0.9-7.1c-0.2-1.3,1.2-2.3,2.4-1.6l6.2,3.6c0.5,0.3,1,0.3,1.5,0.1l6.5-3.1c1.2-0.6,2.6,0.5,2.3,1.8l-1.5,7
	c-0.1,0.5,0,1,0.4,1.4l4.9,5.2c0.9,1,0.3,2.6-1,2.7l-7.1,0.8c-0.6,0-1,0.4-1.3,0.8l-3.4,6.3C356.1,42.3,354.3,42.2,353.8,41z"/>
<path class="st2" d="M381.3,260.6l2.4-3.1c0.1-0.2,0.2-0.5,0.1-0.8l-1.2-3.7c-0.3-0.7,0.4-1.3,1.1-1.1l3.7,1.3
	c0.3,0.1,0.6,0.1,0.8-0.1l3.2-2.3c0.6-0.5,1.4,0,1.4,0.7l-0.1,3.9c0,0.3,0.2,0.5,0.4,0.7l3.2,2.3c0.6,0.5,0.4,1.4-0.3,1.6l-3.8,1.1
	c-0.3,0.1-0.5,0.3-0.6,0.6l-1.2,3.7c-0.3,0.7-1.2,0.8-1.6,0.2l-2.2-3.2c-0.1-0.3-0.4-0.4-0.7-0.4H382
	C381.3,262,380.9,261.2,381.3,260.6z"/>
<path class="st2" d="M115,265.1l-1-3.8c-0.1-0.3-0.3-0.5-0.6-0.6l-3.7-1.3c-0.7-0.3-0.8-1.2-0.2-1.6l3.3-2.1
	c0.2-0.1,0.4-0.4,0.4-0.7l0.1-3.9c0-0.8,0.8-1.2,1.4-0.7l3,2.5c0.2,0.2,0.5,0.3,0.8,0.2l3.8-1.1c0.7-0.2,1.4,0.5,1.1,1.2l-1.4,3.7
	c-0.1,0.3-0.1,0.6,0.1,0.8l2.2,3.3c0.4,0.6-0.1,1.4-0.8,1.4l-3.9-0.2c-0.3-0.1-0.6,0.1-0.8,0.3l-2.4,3.1
	C116,266.2,115.1,266,115,265.1z"/>
<path class="st2" d="M243,19l-0.7-2.8c0-0.3-0.2-0.4-0.4-0.5l-2.8-1c-0.5-0.2-0.6-0.9-0.1-1.2l2.5-1.6c0.2-0.1,0.3-0.3,0.3-0.5
	l0.1-2.9c0-0.6,0.7-0.8,1.1-0.5l2.3,1.9c0.2,0.1,0.4,0.2,0.6,0.1l2.8-0.8c0.5-0.1,1,0.4,0.8,0.9l-1.1,2.7c0,0.2,0,0.4,0.1,0.6
	l1.7,2.4c0.3,0.4-0.1,1-0.6,1l-2.9-0.2c-0.3,0-0.5,0.1-0.6,0.3l-1.8,2.3C244,19.6,243.3,19.5,243,19z"/>
<path class="st2" d="M289.5,224.1l0.9-2.8c0.1-0.2,0-0.4-0.1-0.6l-1.8-2.3c-0.4-0.5-0.1-1.1,0.5-1.1h2.9c0.2,0,0.4-0.1,0.5-0.3
	l1.6-2.4c0.3-0.4,1-0.3,1.2,0.2l0.9,2.8c0,0.2,0.2,0.3,0.4,0.4l2.8,0.8c0.5,0.2,0.6,0.9,0.2,1.2l-2.4,1.8c-0.2,0.2-0.3,0.4-0.3,0.6
	l0.1,2.9c0.1,0.6-0.6,0.9-1,0.6l-2.4-1.7c-0.2-0.1-0.4-0.2-0.6-0.1l-2.8,1C289.5,225.3,289,224.8,289.5,224.1z"/>
<path class="st2" d="M2.4,76.1l1.5-2.5C4,73.4,4,73.2,3.9,73l-1.3-2.7c-0.3-0.5,0.2-1,0.7-0.9L6.2,70c0.2,0,0.4,0,0.6-0.2l2.1-2
	c0.4-0.4,1-0.1,1.1,0.4l0.3,2.9c0,0.2,0.1,0.4,0.3,0.5l2.6,1.4c0.5,0.3,0.5,1,0,1.2l-2.7,1.2c-0.2,0.1-0.4,0.3-0.4,0.5l-0.5,2.9
	c-0.1,0.5-0.7,0.7-1.1,0.3l-2-2.2c-0.2-0.1-0.4-0.2-0.6-0.2L3,77.1C2.5,77.2,2.1,76.6,2.4,76.1z"/>
</svg>
